<?xml version="1.0" encoding="UTF-8" standalone="no"?>
<!DOCTYPE svg PUBLIC "-//W3C//DTD SVG 1.1//EN" "http://www.w3.org/Graphics/SVG/1.1/DTD/svg11.dtd">
<!-- Created with Vectornator (http://vectornator.io/) -->
<svg height="100%" stroke-miterlimit="10" style="fill-rule:nonzero;clip-rule:evenodd;stroke-linecap:round;stroke-linejoin:round;" version="1.1" viewBox="0 0 399.162 803.8" width="100%" xml:space="preserve" xmlns="http://www.w3.org/2000/svg" xmlns:vectornator="http://vectornator.io" xmlns:xlink="http://www.w3.org/1999/xlink">
<defs/>
<clipPath id="ArtboardFrame">
<rect height="803.8" width="399.162" x="0" y="0"/>
</clipPath>
<g clip-path="url(#ArtboardFrame)" id="Untitled" vectornator:layerName="Untitled">
<path d="M41.9155 57.068C42.7755 46.8198 44.061 35.6281 51.422 28.4462C56.508 23.484 63.6431 21.3504 70.5076 19.5148C156.411-3.45599 247.654-6.20133 334.783 11.5632C342.694 13.1761 350.874 15.096 357.18 20.137C368.026 28.8075 370.447 44.0623 372.016 57.8591C388.277 200.8 396.727 344.59 398.899 488.437C400.179 573.208 398.308 661.995 357.781 736.463C347.363 755.605 327.173 767.197 307.242 776.014C225.738 812.066 126.427 816.051 50.1244 770C28.989 757.245 8.59165 738.476 5.86901 713.941C1.67734 676.167-0.273302 638.144 0.030757 600.139C0.419296 551.575 4.48321 503.124 8.54448 454.729C19.6681 322.175 30.7918 189.622 41.9155 57.068Z" fill="#000000" fill-rule="nonzero" opacity="1" stroke="none" vectornator:layerName="path"/>
</g>
</svg>
