<?xml version="1.0" encoding="UTF-8" standalone="no"?>
<!DOCTYPE svg PUBLIC "-//W3C//DTD SVG 1.1//EN" "http://www.w3.org/Graphics/SVG/1.1/DTD/svg11.dtd">
<!-- Created with Vectornator (http://vectornator.io/) -->
<svg height="100%" stroke-miterlimit="10" style="fill-rule:nonzero;clip-rule:evenodd;stroke-linecap:round;stroke-linejoin:round;" version="1.1" viewBox="0 0 319.031 551.596" width="100%" xml:space="preserve" xmlns="http://www.w3.org/2000/svg" xmlns:vectornator="http://vectornator.io" xmlns:xlink="http://www.w3.org/1999/xlink">
<defs/>
<clipPath id="ArtboardFrame">
<rect height="551.596" width="319.031" x="0" y="0"/>
</clipPath>
<g clip-path="url(#ArtboardFrame)" id="Layer-1" vectornator:layerName="Layer 1">
<g opacity="1" vectornator:layerName="Curve 1">
<path d="M151.469 90.7812C147.132 90.9297 142.783 92.5475 139.375 95.0938C136.994 96.8725 135.05 99.2553 133.094 101.469C124.434 111.268 116.978 122.551 113.562 135.281C109.023 140.638 105.026 146.404 102.281 152.969C100.411 157.443 99.144 162.096 98.75 166.938C98.3997 171.241 98.6932 175.601 99.4688 179.844C100.529 185.641 102.473 191.25 104.938 196.594C108.083 203.415 112.201 209.678 117 215.438C118.679 221.161 120.762 226.767 123.25 232.188C118.584 242.357 114.592 252.842 112.031 263.75C110.682 269.5 109.631 275.384 109.219 281.281C108.049 298.018 112.59 315.421 121.812 329.438C125.959 335.739 131.053 341.517 137.625 345.344C147.826 351.283 160.015 352.72 171.625 352.438C174.492 352.368 177.364 352.181 180.219 351.906C182.288 351.707 184.329 351.467 186.344 350.938C189.417 350.13 192.329 348.828 195.062 347.219C200.772 343.858 205.508 339.151 210.344 334.688C211.849 333.298 213.556 332.076 214.969 330.594C216.053 329.456 216.964 328.19 217.719 326.812C219.813 322.989 220.038 319.171 220.344 314.938C220.564 311.883 220.839 308.835 221.062 305.781C221.667 297.498 222.028 289.122 220.531 280.906C218.173 267.96 211.266 256.502 202.344 247C197.631 241.982 192.152 237.672 186.469 233.812C181.195 230.231 175.63 227.064 170.344 223.5C165.102 219.966 160.429 215.785 155.656 211.656C154.405 210.574 153.212 209.416 151.969 208.312C152.466 207.39 152.935 206.451 153.438 205.531C154.632 203.345 155.869 201.262 157.469 199.344C160.428 195.794 164.016 192.828 167.625 189.969C172.071 186.447 176.655 183.063 180.75 179.125C182.935 177.024 184.993 174.764 186.781 172.312C188.536 169.907 190.111 167.324 191.656 164.781C194.15 160.677 196.467 156.449 198.219 151.969C200.02 147.361 201.235 142.413 201.031 137.438C200.809 131.998 198.633 126.96 195.812 122.375C190.082 113.059 181.351 105.986 172.281 100.094C169.127 98.0446 165.893 96.1112 162.625 94.25C160.417 92.9924 158.266 91.6956 155.75 91.1562C154.347 90.8554 152.914 90.7318 151.469 90.7812ZM151.188 98.6562C152.137 98.6313 153.072 98.7043 153.969 98.9375C155.596 99.3608 157.001 100.47 158.406 101.344C161.151 103.05 163.88 104.807 166.531 106.656C174.285 112.065 181.875 118.392 186.75 126.625C188.527 129.627 190.219 133.059 190.469 136.594C190.673 139.491 190.022 142.376 189.062 145.094C187.364 149.904 184.66 154.338 181.844 158.562C180.373 160.768 178.904 163.019 177.25 165.094C175.801 166.911 174.146 168.557 172.406 170.094C164.313 177.244 154.542 182.319 147.219 190.375C145.05 192.76 143.298 195.387 141.625 198.094C140.529 196.816 139.458 195.522 138.469 194.156C134.887 189.212 132.024 183.448 130.469 177.531C129.695 174.589 129.179 171.365 129.812 168.344C130.124 166.859 130.771 165.416 131.438 164.062C132.816 161.261 134.618 158.697 136.625 156.312C139.882 152.442 143.669 149.071 147.562 145.844C148.119 146.088 148.661 146.381 149.219 146.594C157.491 149.638 166.675 145.397 169.719 137.125C172.705 129.009 168.652 120.055 160.688 116.844C160.672 116.835 160.648 116.822 160.625 116.812C160.597 116.798 160.463 116.709 160.375 116.656C160.091 116.485 159.783 116.329 159.5 116.156C158.633 115.627 157.84 115.109 156.938 114.625C154.644 113.396 152.261 112.408 149.688 111.938C145.195 111.115 140.633 111.866 136.656 114.125C135.201 114.951 134.187 115.814 132.906 116.844C130.18 119.034 127.484 121.339 124.844 123.688C128.622 117.382 133.294 111.6 138.344 106.312C139.897 104.686 141.453 102.867 143.25 101.5C145.413 99.8545 148.339 98.731 151.188 98.6562ZM120.969 219.875C122.748 221.753 124.546 223.611 126.438 225.375C125.726 226.807 125.09 228.273 124.406 229.719C123.124 226.485 121.971 223.206 120.969 219.875ZM138.531 235.906C143.691 240.154 148.865 244.303 154.531 247.875C160.87 251.871 167.502 255.362 173.75 259.5C174.612 260.071 175.504 260.584 176.344 261.188C177.685 262.15 178.93 263.312 180.219 264.344C183.73 267.154 186.849 270.49 189.5 274.125C191.636 277.053 193.548 280.301 194.625 283.781C196.494 289.819 196.298 296.329 195.938 302.562C195.758 305.675 195.518 308.793 195.344 311.906C195.282 313.009 195.246 314.114 195.219 315.219C195.218 315.25 195.22 315.281 195.219 315.312C191.494 318.97 188.064 322.943 184 326.219C182.787 327.196 181.499 328.105 180.031 328.656C178.692 329.159 177.153 329.243 175.75 329.438C174.663 329.588 173.373 329.762 172.281 329.875C168.309 330.285 164.267 330.415 160.281 330.125C156.199 329.828 152.073 329.094 148.344 327.344C145.27 325.901 142.846 323.664 140.625 321.125C138.444 318.633 136.545 315.907 134.906 313.031C129.934 304.308 127.19 294.195 127.031 284.156C126.942 278.513 127.688 272.817 128.719 267.281C129.732 261.837 131.137 256.465 132.812 251.188C132.943 250.776 133.116 250.379 133.25 249.969C133.715 250.665 134.116 251.407 134.594 252.094C135.458 253.336 136.341 254.571 137.25 255.781C138.014 256.798 138.763 257.723 139.781 258.5C142.375 260.48 145.701 261.134 148.844 261.656C151.842 262.154 154.795 262.548 157.719 263.406C154.254 262.242 150.679 261.744 147.125 260.938C144.69 260.385 142.172 259.551 140.219 257.938C139.007 256.937 138.187 255.631 137.312 254.344C136.468 253.101 135.643 251.835 134.844 250.562C134.442 249.923 134.109 249.24 133.719 248.594C135.161 244.302 136.782 240.082 138.531 235.906Z" fill="#ffffff" stroke="none"/>
</g>
<g opacity="1" vectornator:layerName="Curve 2">
<path d="M163.438 85.8438C156.806 85.5564 151.652 89.6645 148.219 94.9688C145.4 99.3243 143.429 104.177 141.562 109C141.382 109.468 141.211 109.938 141.031 110.406C139.895 111.718 138.85 113.124 138.062 114.656C137.519 115.713 137.188 116.846 136.875 118C136.261 119.071 135.716 120.157 135.312 121.312C134.219 124.444 133.937 127.775 133.812 131.094C130.413 141.66 127.442 152.37 125.625 163.312C123.056 178.786 122.353 194.5 121.938 210.156C121.82 214.576 121.709 218.986 121.594 223.406C121.462 228.451 121.368 233.488 121.594 238.531C121.783 242.753 122.105 246.975 122.438 251.188C122.523 252.266 122.607 253.327 122.688 254.406C122.721 254.853 122.744 255.304 122.781 255.75C122.638 256.325 122.64 257.093 122.594 257.625C122.529 258.381 122.506 259.087 122.5 259.844C122.441 266.886 126.013 273.224 132.625 276.125C133.434 276.48 134.265 276.765 135.125 276.969C136.111 277.202 137.112 277.41 138.125 277.438C139.456 277.474 140.822 277.429 142.125 277.156C143.544 276.859 144.926 276.376 146.219 275.719C147.49 275.072 148.689 274.234 149.75 273.281C150.7 272.428 151.518 271.442 152.219 270.375C152.926 269.299 153.465 268.104 153.938 266.906C154.291 266.009 154.506 265.041 154.688 264.094C154.85 263.243 154.911 262.395 154.969 261.531C155.06 260.179 154.948 258.786 154.844 257.438C154.826 257.206 154.799 256.982 154.781 256.75C154.78 256.729 154.783 256.708 154.781 256.688C155.429 256.461 156.085 256.217 156.688 255.906C159.141 254.638 161.443 252.75 162.938 250.406C163.04 250.245 163.062 250.042 163.156 249.875C163.707 252.037 164.136 254.231 164.75 256.375C165.614 259.388 166.511 262.508 167.938 265.312C168.553 266.522 169.301 267.766 170.375 268.625C170.91 269.053 171.457 269.53 172.094 269.781C172.244 269.841 172.41 269.849 172.562 269.906C173.268 273.16 174.019 276.43 174.469 279.719C174.675 281.224 174.832 282.74 175 284.25C175.048 284.685 175.11 285.127 175.156 285.562C175.191 285.888 175.158 285.806 175.188 286.094C175.192 286.137 175.215 286.205 175.219 286.219C175.22 286.222 175.219 286.26 175.219 286.25C175.355 287.673 175.594 289.095 176.281 290.25C176.853 291.21 177.181 292.486 178.156 293.031C178.918 293.457 179.739 293.869 180.531 294.312C180.561 295.502 180.668 296.685 180.688 297.875C180.692 296.707 180.599 295.543 180.594 294.375C182.769 295.587 185.021 296.689 187.406 296.5C190.516 296.254 193.018 293.625 195.438 291.656C196.243 291 196.383 289.804 196.781 288.844C197.368 287.429 197.353 285.767 197.25 284.219C197.247 284.197 197.221 284.178 197.219 284.156C197.215 284.128 197.221 284.112 197.219 284.094C197.196 283.773 197.211 283.427 197.188 283.125C197.08 281.753 196.942 280.401 196.812 279.031C196.73 278.159 196.662 277.276 196.562 276.406C196.395 274.934 196.15 273.462 195.906 272C195.899 271.958 195.882 271.917 195.875 271.875C195.195 265.819 194.5 259.78 193.875 253.719C191.845 234.045 190.337 214.26 190.969 194.469C191.456 179.199 193.679 164.031 194.875 148.812C195.187 144.844 195.379 140.884 195.531 136.906C195.61 134.862 195.714 132.827 195.688 130.781C195.625 125.987 195.413 119.677 192.375 115.688C191.954 115.134 191.524 114.582 191 114.125C190.314 113.527 189.55 112.997 188.75 112.562C188.05 112.183 187.303 111.914 186.531 111.719C185.803 111.534 185.032 111.473 184.281 111.438C183.516 111.401 182.792 111.585 182.062 111.75C182.058 109.45 181.55 107.334 179.562 106.062C178.748 97.5562 174.938 88.0823 165.812 86.1562C165.026 85.9904 164.24 85.8785 163.438 85.8438ZM158.031 224.406C158.509 227.889 159.078 231.358 159.719 234.812C159.21 237.682 158.589 240.53 157.688 243.312C157.367 244.302 157.081 245.478 156.531 246.375C156.354 246.664 156.018 246.905 155.781 247.188C156.002 244.9 156.27 242.626 156.5 240.344C157.034 235.033 157.539 229.721 158.031 224.406Z" fill="#ffffff" stroke="none"/>
</g>
<g opacity="1" vectornator:layerName="Curve 3">
<path d="M167.844 24.6875C165.684 24.8232 163.501 25.2932 161.406 25.75C156.367 26.849 151.385 28.3576 146.438 29.8125C143.021 30.8172 139.65 32.0606 136.156 32.7812C134.434 33.1365 132.661 33.2178 130.938 33.5625C129.045 33.9409 127.255 34.5725 125.531 35.4375C117.921 39.2566 111.406 44.8198 105.375 50.75C101.325 54.7322 97.4608 58.8791 93.9062 63.3125C92.1771 65.4691 90.6538 67.7835 89.0312 70.0312C87.8834 71.1171 86.6648 72.1416 85.625 73.3438C81.3065 78.3364 77.743 84.0168 74.3438 89.6562C71.3654 94.5974 68.4881 99.636 65.875 104.781C63.2036 110.041 60.8357 115.456 58.4375 120.844C54.7752 129.072 50.7672 137.144 47.625 145.594C46.7025 148.074 45.8326 150.603 45.0312 153.125C44.364 155.225 43.7154 157.323 43.0938 159.438C42.5935 161.139 42.1335 162.846 41.6875 164.562C41.2036 166.425 40.8147 168.324 40.3438 170.188C39.5658 173.266 38.3711 176.608 39.2188 179.812C39.3871 180.449 39.5639 181.076 39.875 181.656C40.3426 182.528 40.8515 183.437 41.5625 184.125C42.4244 184.959 43.3994 185.679 44.5 186.156C45.5564 186.614 46.7567 186.809 47.9062 186.875C48.8076 186.927 49.6832 186.705 50.5625 186.5C51.1129 186.372 51.6418 186.111 52.1562 185.875C48.8873 195.686 45.8759 205.586 43.4062 215.594C40.1689 228.712 37.6165 242.017 35.5938 255.375C35.4228 256.504 35.3766 257.65 35.2188 258.781C35.1089 259.42 34.95 260.048 34.8438 260.688C33.3162 269.875 32.1513 279.111 30.9375 288.344C30.5605 291.212 30.2179 294.126 29.7812 296.969C29.5243 298.641 29.2267 300.295 29.3438 302C29.394 302.732 29.4669 303.471 29.625 304.188C29.8387 305.156 30.0506 306.163 30.4688 307.062C31.0452 308.302 31.6528 309.542 32.5625 310.562C33.7164 311.856 35.0922 312.988 36.5625 313.906C37.6145 314.564 38.8311 314.905 40.0312 315.219C41.0535 315.486 42.1316 315.585 43.1875 315.625C44.6507 315.681 46.3955 315.366 47.7812 314.906C53.3977 313.043 56.7934 307.872 57.75 302.25C57.8269 301.798 57.8192 301.331 57.875 300.875C63.3447 304.658 70.8012 304.81 76.4375 300.625C83.5147 295.37 85.0045 285.358 79.75 278.281C79.2848 277.667 78.7807 277.087 78.2812 276.5C78.2896 275.762 78.2868 275.018 78.3125 274.281C78.4461 270.442 78.8266 266.626 79.5 262.844C80.4103 257.73 81.949 252.773 83.5625 247.844C85.4831 241.976 87.6402 236.161 89.875 230.406C92.6529 223.253 95.5747 216.169 98.4688 209.062C99.4549 206.641 100.434 204.208 101.406 201.781C102.078 200.104 102.73 198.434 103.531 196.812C105.847 192.124 108.564 187.605 111.094 183.031C115.226 175.56 119.408 168.113 124.188 161.031C129.358 153.37 135.078 146.103 140.75 138.812C144.118 134.483 147.455 130.119 150.688 125.688C152.617 123.042 154.574 120.452 156.188 117.594C158.39 113.692 160.116 109.506 161.406 105.219C162.58 101.319 163.435 97.198 162.594 93.125C162.39 92.1406 162.157 91.1512 161.781 90.2188C161.313 89.0548 160.812 87.9038 160.094 86.875C159.217 85.6189 158.201 84.463 157.062 83.4375C156.137 82.6039 155.009 81.9779 153.938 81.3438C152.701 80.6121 151.169 80.1305 149.781 79.75C145.033 78.4479 140.071 78.8092 135.344 80C135.152 80.0484 134.973 80.1367 134.781 80.1875C134.864 80.0731 134.948 79.9578 135.031 79.8438C136.332 78.069 137.723 76.37 139.062 74.625C140.286 73.0322 141.484 71.4142 142.562 69.7188C143.367 68.4546 144.122 67.1585 144.781 65.8125C145.533 64.2784 146.119 62.6817 146.656 61.0625C147.601 58.2178 148.546 55.2906 147.906 52.25C147.726 51.3933 147.505 50.5217 147.156 49.7188C146.82 48.9437 146.392 48.1993 145.875 47.5312C145.303 46.7924 144.644 46.1056 143.906 45.5312C143.151 44.943 142.316 44.4729 141.438 44.0938C140.981 43.8967 140.483 43.8126 140 43.6875C142.665 42.993 145.292 42.1376 147.906 41.2812C152.681 39.7169 157.515 38.1802 162.375 36.9062C164.242 36.4168 166.116 35.975 168.031 35.7188C168.47 35.6601 169.218 35.5509 169.75 35.5938C171.303 35.7187 172.594 37.0751 173.5 38.2188C175.598 40.8684 176.407 43.9879 177.281 47.1875C178.799 52.7408 181.208 57.9939 183.375 63.3125C184.657 66.4594 185.761 69.6593 186.75 72.9062C185.708 74.054 184.6 75.1447 183.656 76.375C181.229 79.541 179.379 83.1007 177.594 86.6562C173.986 93.8436 170.944 101.311 168.312 108.906C166.176 115.07 164.337 121.248 163.25 127.688C162.255 133.58 161.646 139.537 160.938 145.469C159.196 160.06 158.497 174.743 160.5 189.344C158.909 176.021 159.533 162.661 161.188 149.375C161.66 145.582 162.194 141.786 162.719 138C163.498 132.376 164.349 126.752 165.781 121.25C166.562 118.251 167.569 115.298 168.594 112.375C170.353 107.355 172.268 102.403 174.406 97.5312C176.111 93.6461 177.958 89.83 179.969 86.0938C181.268 83.6799 182.57 81.2508 184.188 79.0312C185.19 77.6561 186.356 76.4103 187.5 75.1562C189.794 83.6363 190.846 92.4107 191.469 101.156C191.822 106.128 192.084 111.111 192.219 116.094C192.285 118.548 192.111 121.015 192.219 123.469C192.375 127.028 193.396 130.352 193.969 133.844C194.244 135.521 194.341 137.241 194.375 138.938C194.473 143.864 193.989 148.77 193.75 153.688C193.621 156.329 193.531 159.062 193.906 161.688C194.802 167.957 198.041 173.655 200.219 179.531C203.573 188.584 206.448 197.814 210.5 206.594C211.893 209.611 213.679 212.39 215.406 215.219C216.587 217.154 217.684 219.15 219.25 220.812C221.036 222.708 223.276 224.245 225.344 225.812C227.471 227.424 229.665 228.987 231.906 230.438C234.172 231.904 236.495 233.256 238.906 234.469C240.462 235.251 241.918 235.97 243.656 236.188C245.583 236.428 247.509 236.137 249.406 235.812C250.701 235.591 252.01 235.37 253.281 235.031C255.034 234.564 256.739 233.917 258.469 233.375C260.959 232.595 263.534 232.249 266 231.375C267.179 230.957 268.432 230.45 269.344 229.562C270.436 228.499 270.909 227.064 270.781 225.562C270.733 224.992 270.507 224.412 270.5 223.844C270.485 222.642 270.539 221.452 270.469 220.25C270.362 218.418 270.158 216.606 269.969 214.781C269.495 210.209 268.999 205.629 268.469 201.062C268.106 197.939 267.74 194.81 267.156 191.719C266.188 186.595 264.523 181.65 264.031 176.438C263.342 169.132 263.412 161.793 263.094 154.469C262.666 144.611 261.504 134.789 260.594 124.969C259.808 116.492 259.481 107.922 258.188 99.5C257.788 96.9019 257.269 94.3291 256.625 91.7812C255.148 85.9387 253.105 80.2581 251.656 74.4062C251.126 72.2641 250.827 70.0401 250.406 67.875C249.761 64.5521 248.98 61.2871 247.75 58.125C247.166 56.6231 246.418 55.1261 245.438 53.8438C243.023 50.6867 239.039 50.059 235.5 48.8125C233.083 47.9611 230.673 47.0215 228.156 46.5C226.208 46.0963 224.227 45.9301 222.25 46.2188C217.167 46.961 212.828 50.4872 208.719 53.3125C203.831 56.6733 199.249 60.4585 194.969 64.5625C194.894 64.6338 194.824 64.71 194.75 64.7812C194.53 64.1375 194.357 63.4838 194.125 62.8438C192.755 59.0677 191.19 55.3551 189.781 51.5938C189.065 49.6804 188.358 47.7519 187.812 45.7812C187.122 43.2876 186.638 40.7701 185.719 38.3438C184.146 34.1952 181.549 30.1764 177.938 27.5312C176.796 26.6953 175.546 25.9953 174.219 25.5C172.148 24.7272 170.003 24.5518 167.844 24.6875ZM223.094 49.0312C227.085 48.7966 230.771 50.3553 234.438 51.7188C235.603 52.1521 236.789 52.5779 237.969 52.9688C239.398 53.4423 240.95 53.9326 242.062 55C243.675 56.548 244.563 58.9635 245.219 61.0312C246.088 63.772 246.581 66.6387 247.062 69.4688C247.598 72.6124 248.146 75.7182 248.938 78.8125C250.588 85.2619 252.746 91.5292 253.781 98.125C254.937 105.491 255.19 112.946 255.688 120.375C256.349 130.262 257.396 140.132 257.875 150.031C258.289 158.583 257.931 167.173 258.5 175.719C258.678 178.399 258.994 181.024 259.531 183.656C260.233 187.094 261.191 190.49 261.688 193.969C262.351 198.612 262.775 203.298 263.188 207.969C263.483 211.31 263.824 214.622 264.062 217.969C264.148 219.17 264.255 220.388 264.25 221.594C264.247 222.38 264.173 223.182 264.188 223.969C264.195 224.391 264.276 224.782 264.344 225.188C264.202 225.241 264.05 225.296 263.906 225.344C263.282 225.553 262.64 225.69 262 225.844C260.18 226.281 258.361 226.596 256.562 227.125C254.912 227.61 253.296 228.21 251.625 228.625C250.335 228.946 249.002 229.121 247.688 229.312C246.554 229.478 245.323 229.67 244.188 229.406C243.987 229.36 243.841 229.31 243.656 229.219C243.115 228.951 242.566 228.656 242.031 228.375C241.493 228.092 240.966 227.83 240.438 227.531C238.834 226.624 237.279 225.622 235.75 224.594C234.201 223.552 232.675 222.472 231.188 221.344C229.686 220.205 228.202 219.014 226.75 217.812C226.069 217.249 225.183 216.558 224.562 215.875C223.381 214.573 222.57 212.941 221.688 211.438C220.57 209.533 219.413 207.686 218.406 205.719C217.649 204.238 217.018 202.688 216.375 201.156C212.104 190.976 209.383 180.238 205.188 170.031C203.935 166.984 202.565 163.893 202.156 160.594C201.814 157.836 202.159 154.947 202.344 152.188C202.666 147.382 203.186 142.574 203.094 137.75C203.048 135.352 202.845 132.985 202.406 130.625C201.942 128.131 201.28 125.674 201.219 123.125C201.161 120.727 201.423 118.336 201.406 115.938C201.312 102.785 200.77 89.4353 198.062 76.5312C197.405 73.3966 196.519 70.3008 195.562 67.25C197.842 65.1372 200.101 63.0059 202.531 61.0625C205.715 58.5162 209.059 56.2292 212.469 54C215.64 51.9267 219.152 49.263 223.094 49.0312Z" fill="#ffffff" stroke="none"/>
</g>
<g opacity="1" vectornator:layerName="Curve 4">
<path d="M92.25 165.188C89.2094 166.09 86.1108 166.805 83.125 167.875C82.6054 168.061 82.2216 168.536 81.8125 168.906C81.3134 169.358 80.8613 169.847 80.4062 170.344C79.1434 171.721 78.245 173.436 77.4062 175.094C73.9563 181.912 70.906 188.956 68.3438 196.156C60.6038 217.906 55.7476 240.538 51.8125 263.25C50.5527 270.521 49.3407 277.779 48.1562 285.062C47.4842 289.196 46.7002 293.335 46.25 297.5C45.6882 302.698 45.7171 307.942 45.4062 313.156C44.95 321.959 51.7285 329.481 60.5312 329.938C69.334 330.394 76.825 323.615 77.2812 314.812C77.4921 310.132 77.348 305.418 77.7812 300.75C77.9577 298.849 78.3056 296.957 78.5938 295.062C79.8094 298.977 81.0967 302.865 82.7812 306.594C83.2604 307.654 83.9131 308.644 84.4375 309.688C84.9975 313.22 86.2933 316.633 89.4688 318.344C90.8546 320.302 92.3219 322.192 93.9688 323.938C96.7226 326.856 99.4768 329.129 103.438 330.156C110.032 331.867 117.69 329.636 122.469 324.812C124.375 322.889 125.773 320.496 127.156 318.188C128.93 315.229 130.517 312.191 131.969 309.062C134.792 302.98 137.066 296.632 138.906 290.188C140.055 286.166 141.068 282.098 141.75 277.969C142.8 271.617 143.058 265.186 143.031 258.75C150.688 280.986 157.867 303.385 167.25 324.969C171.152 333.944 175.442 342.755 180.25 351.281C180.817 352.286 181.387 353.285 181.969 354.281C182.259 354.778 182.552 355.286 182.844 355.781C183.607 357.076 185.127 359.438 186.938 358.344C188.438 357.437 188.551 354.391 188.656 352.938C188.965 348.682 188.796 344.385 188.688 340.125C188.548 334.624 188.345 329.129 188.406 323.625C188.445 320.08 188.506 316.449 189.25 312.969C190.486 307.187 193.56 301.973 195.75 296.531C193.346 301.923 190.081 307.042 188.625 312.812C187.636 316.729 187.473 320.857 187.312 324.875C187.091 330.403 187.104 335.938 187.031 341.469C186.986 344.93 186.961 348.424 186.656 351.875C186.549 353.087 186.396 354.288 186.094 355.469C186.048 355.647 185.957 355.836 185.875 356.031C185.788 355.931 185.736 355.83 185.656 355.719C185.398 355.358 185.148 354.983 184.938 354.594C184.123 353.086 183.318 351.585 182.531 350.062C180.179 345.51 177.981 340.873 175.906 336.188C170.128 323.139 165.315 309.649 160.969 296.062C153.916 274.012 147.745 251.678 140.219 229.781C138.824 223.367 136.889 216.99 133.469 211.406C132.257 208.349 131.084 205.27 129.781 202.25C128.53 199.35 127.576 196.139 123.938 195.656C123.487 195.596 123.047 195.596 122.594 195.625C119.53 195.821 116.877 198.241 114.938 200.406C113.648 201.846 112.477 203.419 111.562 205.125C111.155 205.884 110.89 206.725 110.562 207.531C109.797 208.702 109.005 209.825 108.281 211.062C106.434 214.222 104.703 217.463 103.094 220.75C100.254 226.55 97.8013 232.513 95.625 238.594C95.6084 234.05 95.7257 229.53 96.0938 225C96.3267 222.134 96.6393 219.259 97 216.406C97.192 214.888 97.3411 213.348 97.625 211.844C98.1573 209.023 99.0032 206.27 99.8438 203.531C101.056 199.58 102.355 195.641 103.656 191.719C104.724 188.5 106.035 185.23 106.438 181.844C106.66 179.972 106.23 178.062 106.031 176.188C105.977 175.673 105.686 175.098 105.5 174.625C105.186 173.826 104.823 173.046 104.375 172.312C101.886 168.236 97.6788 165.751 92.9688 165.219C92.726 165.191 92.4842 165.118 92.25 165.188ZM119.875 226.312C121.245 231.176 122.065 236.192 122.5 241.219C123.335 250.857 123.171 260.986 121.531 270.531C120.601 275.948 119.016 281.19 117.125 286.344C114.979 292.193 112.358 297.842 109.094 303.125C108.41 301.953 107.79 300.763 107.219 299.531C108.567 289.065 106.051 278.582 106.219 268.094C106.291 263.594 107.253 259.167 108.031 254.75C108.347 252.958 108.785 251.193 109.125 249.406C111.501 243.044 114.143 236.774 117.281 230.781C118.082 229.253 119.018 227.811 119.875 226.312Z" fill="#ffffff" stroke="none"/>
</g>
<g opacity="1" vectornator:layerName="Curve 5">
<path d="M125.844 136.312C123.165 136.071 120.459 136.186 117.781 136.438C115.65 136.637 113.541 137.12 111.469 137.656C109.782 138.093 108.148 138.694 106.531 139.344C105.165 139.893 103.834 140.564 102.531 141.25C91.3977 147.112 84.2109 157.927 79.0312 169.031C77.6441 172.005 76.215 175.067 75.1875 178.188C74.7266 179.587 74.0398 180.926 73.4688 182.281C72.9078 183.613 72.3263 185.052 71.8438 186.406C70.2759 190.806 69.1634 195.342 68.7188 200C68.3582 203.777 68.7137 207.462 69.0312 211.219C69.229 213.558 69.3807 215.91 69.5625 218.25C69.8888 222.45 70.3122 226.641 70.5938 230.844C70.887 235.221 71.007 239.618 71.2188 244C71.4668 249.135 71.2957 254.309 71.7188 259.438C71.9295 261.993 72.3618 264.521 72.6875 267.062C72.455 269.346 72.1374 271.617 72.1562 273.938C72.1732 276.022 72.2207 278.121 72.5 280.188C72.7583 282.098 72.8854 284.059 73.4375 285.906C74.5527 289.638 75.6988 293.405 77.4688 296.875C77.9848 297.887 78.6648 298.796 79.2812 299.75C79.397 300.129 79.4392 300.531 79.5625 300.906C80.3805 303.398 81.4135 305.815 82.5938 308.156C87.6892 318.263 95.8852 326.384 105.156 332.719C107.79 334.519 110.407 336.347 113.312 337.688C113.607 337.823 113.921 337.905 114.219 338.031C116.836 341.685 119.593 345.251 122.719 348.5C125.077 350.951 127.601 353.22 130.281 355.312C132.247 356.848 134.247 358.344 136.531 359.375C142.212 361.938 148.851 362.164 154.875 360.812C157.359 360.255 159.795 359.413 162.062 358.25C163.408 357.56 164.615 356.809 165.344 355.438C166.304 353.63 166.235 351.476 166.031 349.5C165.709 346.371 164.965 343.353 165.031 340.188C164.53 343.315 164.831 346.388 164.719 349.531C164.662 351.131 164.552 353.036 163.562 354.375C162.728 355.505 161.242 355.841 159.969 356.219C158.128 356.765 156.225 357.124 154.312 357.281C149.213 357.701 143.695 356.869 139.312 354.094C137.634 353.031 136.218 351.607 134.844 350.188C133.2 348.489 131.66 346.718 130.219 344.844C129.189 343.505 128.307 342.058 127.375 340.656C128.345 340.66 129.316 340.668 130.281 340.594C140.481 339.807 150.387 334.682 156.531 326.438C158.347 324.001 159.61 321.28 160.938 318.562C163.092 314.153 165.113 309.676 166.875 305.094C170.044 296.851 172.478 288.306 173.781 279.562C174.608 274.014 174.894 268.385 175.031 262.781C175.292 252.112 174.626 241.416 173.188 230.844C172.485 225.679 171.647 220.549 170.625 215.438C169.754 211.081 168.808 206.753 167.406 202.531C166.407 199.521 165.159 196.576 163.75 193.719C163.783 193.081 163.812 192.45 163.844 191.812C163.871 191.272 163.98 190.727 163.938 190.188C163.914 189.895 163.862 190.773 163.812 191.062C163.774 191.285 163.713 191.5 163.656 191.719C163.638 191.788 163.678 191.571 163.688 191.5C163.732 191.181 163.793 190.881 163.844 190.562C163.936 189.987 164.042 189.39 164.125 188.812C164.242 187.994 164.352 187.198 164.438 186.375C164.85 182.391 164.918 178.388 164.406 174.406C163.559 167.823 161.333 161.492 157.781 155.875C157.025 154.679 156.253 153.46 155.344 152.375C153.742 150.464 152.133 148.542 150.25 146.906C147.957 144.914 145.52 143.057 142.875 141.562C140.215 140.059 137.358 138.835 134.438 137.938C131.645 137.079 128.753 136.575 125.844 136.312Z" fill="#ffffff" stroke="none"/>
</g>
<g opacity="1" vectornator:layerName="Curve 6">
<path d="M198.281 16.1562C194.728 16.0701 191.169 16.4493 187.719 17.2812C183.883 18.2061 180.357 19.8177 176.812 21.5C173.281 23.1764 169.686 24.6166 166.219 26.4375C157.334 31.1037 149.252 37.1648 142.094 44.1875C134.235 51.8967 127.551 60.6676 120.656 69.2188C115.061 76.1576 109.66 83.2244 104.469 90.4688C102.386 93.3757 100.256 96.2677 98.2812 99.25C96.3169 102.217 94.4786 105.265 92.75 108.375C88.8765 115.343 85.5353 122.576 82.2188 129.812C81.5398 129.852 80.8625 129.771 80.1875 129.844C77.3064 130.153 74.4272 130.715 71.6562 131.562C68.7564 132.449 65.9195 133.593 63.25 135.031C60.5697 136.476 58.0559 138.243 55.6875 140.156C53.706 141.757 52.0015 143.682 50.25 145.531C49.5333 146.288 48.9157 147.142 48.2812 147.969C47.0683 149.55 45.9961 151.127 44.9375 152.812C41.6978 157.972 39.2326 163.571 37.4062 169.375C36.3063 172.871 35.4424 176.438 34.5938 180C33.7442 183.566 32.7191 187.087 32 190.688C30.7603 196.894 29.8944 203.169 28.8125 209.406C25.6819 227.453 22.6105 245.507 19.7188 263.594C16.1514 285.905 13.156 308.35 13.6562 331C13.8998 342.028 14.8971 353.031 16.75 363.906C17.7133 369.56 18.7557 375.258 20.5312 380.719C22.5556 386.945 25.794 392.625 28.2812 398.656C30.4291 403.864 32.6297 409.069 34.8438 414.25C36.8851 420.063 38.8595 425.903 41.1562 431.625C44.0992 438.957 47.3982 446.112 50.5 453.375C52.6593 458.431 54.4319 463.623 57 468.5C60.2657 474.702 64.7906 480.169 69.4688 485.344C71.1929 487.251 72.9517 489.134 74.6875 491.031C77.3254 493.914 79.9516 496.719 83.125 499.031C85.891 501.047 89.0696 502.135 92.1875 503.406C94.3859 505.936 96.5124 508.515 98.9688 510.812C104.629 516.105 111.327 520.256 118.781 522.469C123.087 523.747 127.546 524.336 132.031 524.375C133.132 524.385 134.247 524.344 135.344 524.25C135.353 524.251 135.366 524.249 135.375 524.25C136.543 524.422 137.71 524.621 138.875 524.812C142.619 525.429 146.36 525.968 150.156 526.125C157.973 526.448 165.849 525.382 173.125 522.438C176.574 521.042 179.866 519.26 183.031 517.312C187.999 514.256 192.516 510.614 197.125 507.062C204.2 501.61 210.964 495.79 217.031 489.219C223.916 481.762 229.818 473.398 234.469 464.375C237.447 458.597 239.926 452.575 241.969 446.406C243.712 441.141 245.122 435.757 246.688 430.438C252.313 411.329 262.307 393.79 267.312 374.469C270.192 363.354 271.066 351.855 273.688 340.688C276.559 328.452 279.902 316.334 282.625 304.062C284.864 293.972 286.453 283.797 287.344 273.5C291.137 229.643 286.599 185.689 278.875 142.5C278.089 138.106 277.249 133.736 276.156 129.406C274.682 123.569 272.875 117.83 271.375 112C270.042 106.821 269.417 101.462 267.938 96.3125C267.077 93.3174 265.988 90.433 264.781 87.5625C263.905 85.4795 262.903 83.4092 262.062 81.3125C261.042 78.7679 260.614 76.0835 259.938 73.4375C259.151 70.3583 258.194 67.3279 256.938 64.4062C255.133 60.2106 252.802 56.2889 250.125 52.5938C248.017 49.6843 245.674 46.9584 243.469 44.125C240.733 40.6108 237.921 37.1648 234.812 33.9688C227.598 26.5509 218.874 20.3989 208.781 17.6875C205.362 16.7689 201.835 16.2424 198.281 16.1562ZM198.594 62.125C198.572 62.2717 198.331 62.2419 198.188 62.2812C198.066 62.3147 197.935 62.3467 197.812 62.375C197.99 62.305 198.165 62.2235 198.344 62.1562C198.422 62.1268 198.606 62.042 198.594 62.125ZM196.219 63.0312C196.55 63.2914 196.902 63.6143 197.188 63.875C198.351 64.9358 199.389 66.1186 200.375 67.3438C202.589 70.0946 204.483 73.0656 206.531 75.9375C208.08 78.1094 209.817 80.2931 210.906 82.75C210.912 82.7626 211.003 83.1627 211.031 83.2812C211.014 83.2297 210.963 83.1502 210.969 83.1875C211.194 84.6638 211.491 86.1525 211.75 87.625C212.33 90.9176 213.066 94.1817 214.062 97.375C214.846 99.8854 215.823 102.341 216.719 104.812C217.224 106.207 217.744 107.618 218.094 109.062C218.614 111.214 218.741 113.498 219.031 115.688C219.469 118.99 220.015 122.268 220.688 125.531C222.1 132.389 223.856 139.235 224.75 146.188C226.941 163.215 228.181 180.41 228.781 197.562C229.633 221.897 228.676 246.72 224.156 270.688C222.605 278.913 220.171 286.924 217.594 294.875C214.388 304.764 210.828 314.55 207.906 324.531C206.204 330.346 204.802 336.234 203.531 342.156C202.425 347.311 201.455 352.53 199.969 357.594C199.47 359.293 198.834 360.934 198.219 362.594C197.237 365.243 196.126 367.835 195.031 370.438C194.467 366.38 193.881 362.298 193.562 358.219C193.387 355.968 193.171 353.722 193.031 351.469C192.525 343.34 192.53 335.173 192.562 327.031C192.612 314.691 192.885 302.34 192.719 290C192.668 286.255 192.56 282.57 192.156 278.844C191.411 271.96 190.295 265.102 190.688 258.156C191.097 250.909 194.382 244.187 195.75 237.125C196.14 235.11 196.397 232.989 196.438 230.938C196.5 227.771 196.187 224.599 196.062 221.438C196.028 224.592 196.189 227.756 195.969 230.906C195.828 232.918 195.451 234.979 194.969 236.938C193.222 244.027 189.602 250.671 188.812 258C188.476 261.121 188.4 264.27 188.5 267.406C188.697 273.568 189.547 279.702 189.375 285.875C188.853 304.602 187.088 323.272 186.594 342C186.346 351.398 186.615 360.756 187.375 370.125C187.774 375.046 188.262 379.969 188.688 384.906C186.878 388.847 185.031 392.774 183.375 396.781C181.279 401.853 179.476 407.033 177.688 412.219C175.448 418.711 173.077 425.279 169 430.875C164.713 436.759 158.642 441.053 152.625 445C151.557 445.7 150.496 446.411 149.438 447.125C149.418 447.121 149.395 447.129 149.375 447.125C149.189 447.087 148.998 447.069 148.812 447.031C146.238 443.49 143.683 439.879 140.656 436.719C140.131 436.17 139.507 435.769 138.969 435.25C138.884 435.022 138.807 434.789 138.719 434.562C138.538 434.102 138.187 433.175 138 432.688C137.408 431.141 136.817 429.594 136.188 428.062C133.293 421.019 129.722 414.206 124.844 408.312C123.456 406.636 121.897 405.136 120.375 403.594C120.319 403.491 120.274 403.384 120.219 403.281C119.628 402.193 119.068 401.085 118.531 399.969C116.602 395.96 114.799 391.889 113.094 387.781C109.979 380.28 107.244 372.636 104.312 365.062C103.396 362.696 102.375 360.367 101.312 358.062C100.964 357.306 100.629 356.538 100.281 355.781C100.272 355.76 100.26 355.74 100.25 355.719C100.221 355.563 100.215 355.406 100.188 355.25C100.135 354.951 100.081 354.644 100.031 354.344C99.8304 353.141 99.6394 351.957 99.4688 350.75C98.9384 346.999 98.5631 343.22 98.3438 339.438C97.6649 327.729 98.5542 316.014 100.094 304.406C101.464 294.076 103.321 283.812 105.188 273.562C107.207 262.474 109.272 251.385 111.375 240.312C112.729 233.185 114.129 226.062 115.5 218.938C115.922 216.743 116.319 214.546 116.719 212.344C122.099 208.348 126.747 203.223 129.938 196.812C139.27 178.061 133.897 155.884 118.312 143.188C121.363 137.382 124.496 131.615 128.125 126.156C130.737 122.228 133.734 118.612 136.688 114.938C138.248 112.996 139.765 111.026 141.375 109.125C146.712 102.823 152.265 96.6781 157.812 90.5625C165.546 82.0372 173.352 73.4216 183.75 68.0938C187.321 66.2638 191.126 65.0722 194.844 63.5938C195.303 63.411 195.762 63.2213 196.219 63.0312ZM114.031 140.125C114.113 140.179 114.2 140.227 114.281 140.281C114.723 140.577 115.225 140.92 115.656 141.25C115.731 141.307 115.782 141.364 115.875 141.438C115.266 140.988 114.628 140.584 114.031 140.125ZM132.531 429.562C132.736 429.716 132.957 429.87 133.156 430.031C133.501 430.31 133.826 430.579 134.156 430.875C134.463 431.151 134.75 431.483 135.062 431.781C134.199 431.072 133.437 430.251 132.531 429.562ZM132.75 445.531C133.27 445.536 133.793 445.534 134.312 445.562C134.449 445.57 134.582 445.615 134.719 445.625C133.723 445.628 132.733 445.556 131.719 445.562C131.373 445.565 132.404 445.528 132.75 445.531ZM143.906 450.688C143.677 450.802 143.478 451.003 143.25 451.062C143.189 451.078 142.974 451.089 143.031 451.062C143.315 450.929 143.62 450.814 143.906 450.688ZM133.125 523.969C132.981 523.836 133.524 524.01 133.719 524.031C133.866 524.047 134.027 524.074 134.188 524.094C134.04 524.084 133.897 524.075 133.75 524.062C133.542 524.045 133.279 524.11 133.125 523.969Z" fill="#ffffff" stroke="none"/>
</g>
<g opacity="1" vectornator:layerName="Curve 7">
<path d="M177.406 34.1562C153.174 35.7403 134.822 56.6431 136.406 80.875C137.63 92.7769 138.788 104.701 140.094 116.594C140.88 123.758 141.767 130.906 142.625 138.062C143.937 149.01 145.283 159.95 147 170.844C147.98 177.061 149.24 183.23 150.594 189.375C151.217 192.205 151.933 195.027 152.469 197.875C153 200.694 153.46 203.563 153.844 206.406C154.358 210.214 154.47 214.057 155.156 217.844C155.586 220.217 155.975 222.577 156.469 224.938C157.657 230.618 159.054 236.265 160.281 241.938C161.916 249.493 163.381 257.085 164.938 264.656C167.169 275.509 169.189 286.427 171.25 297.312C173.043 306.78 174.88 316.237 176.594 325.719C177.791 332.345 178.973 338.965 180.156 345.594C180.579 347.961 181.015 350.32 181.438 352.688C181.525 353.176 181.615 353.831 181.719 354.375C181.755 354.564 181.804 354.749 181.844 354.938C181.878 355.103 181.869 355.022 181.906 355.125C181.918 355.156 181.93 355.251 181.938 355.219C181.991 354.98 181.89 354.708 181.938 354.469C181.987 354.218 182.043 353.969 182.094 353.719C182.1 356.909 182.29 359.856 183.969 362.875C184.281 363.436 184.588 364.014 184.969 364.531C185.587 365.372 186.188 366.245 186.969 366.938C188.315 368.131 189.646 369.446 191.312 370.125C193.949 371.2 196.779 372.186 199.625 372.094C202.646 371.996 205.631 370.928 208.344 369.594C210.171 368.695 211.552 367.055 212.938 365.562C213.74 364.697 214.24 363.576 214.844 362.562C215.049 362.218 215.261 361.893 215.344 361.5C215.803 359.309 216.295 357.104 216.719 354.906C216.82 354.382 216.744 353.755 216.75 353.219C216.761 352.195 216.779 351.18 216.812 350.156C216.924 346.792 217.045 343.427 217.156 340.062C217.252 337.179 217.342 334.29 217.438 331.406C217.565 327.56 217.689 323.72 217.844 319.875C218.038 315.067 218.28 310.244 218.5 305.438C219.118 291.972 219.604 278.52 220.375 265.062C220.706 259.292 221.105 253.518 221.469 247.75C221.864 241.482 222.275 235.198 222.781 228.938C223.054 225.566 223.437 222.192 223.594 218.812C223.726 215.954 223.929 213.08 223.875 210.219C223.821 207.35 223.571 204.495 223.562 201.625C223.554 198.756 223.609 195.834 223.75 192.969C223.916 189.592 224.304 186.215 224.562 182.844C225.004 177.091 225.361 171.363 225.5 165.594C225.789 153.612 225.583 141.606 225.406 129.625C225.315 123.424 225.288 117.231 225.156 111.031C224.902 99.0693 224.492 87.1162 224.156 75.1562C222.572 50.9243 201.638 32.5722 177.406 34.1562ZM215.875 349.531C215.924 349.691 216.017 349.841 216.062 350C216.29 350.806 216.374 351.241 216.531 352.156C216.54 352.207 216.541 352.344 216.5 352.312C216.334 352.185 216.288 351.458 216.25 351.281C216.125 350.699 215.991 350.115 215.875 349.531Z" fill="#ffffff" stroke="none"/>
</g>
<g opacity="1" vectornator:layerName="Curve 8">
<path d="M224.188 105.625C221.973 105.668 219.743 105.795 217.562 106.188C214.74 106.696 211.926 107.366 209.219 108.312C206.774 109.167 204.395 110.261 202.156 111.562C199.742 112.966 197.426 114.55 195.312 116.375C193.098 118.287 191.055 120.417 189.25 122.719C187.431 125.039 185.87 127.577 184.5 130.188C183.358 132.364 182.565 134.724 181.719 137.031C181.14 138.609 180.865 140.26 180.531 141.906C180.242 143.335 179.999 144.928 179.812 146.375C179.069 152.157 179.134 157.998 179.844 163.781C180.383 168.174 181.524 172.437 182.469 176.75C183.036 179.34 183.577 181.966 184.25 184.531C184.86 186.854 185.644 189.12 186.375 191.406C187.115 193.722 187.854 196.075 188.812 198.312C190.052 201.207 191.791 203.89 193.031 206.781C193.334 207.487 193.536 208.221 193.812 208.938C194.028 209.496 194.368 210.203 194.531 210.781C194.838 211.87 194.977 212.996 195.25 214.094C195.528 215.209 195.929 216.299 196.406 217.344C196.63 217.833 196.944 218.272 197.188 218.75C198.258 220.854 199.071 223.127 200.219 225.188C200.339 225.403 200.533 225.568 200.656 225.781C202.325 228.675 203.532 231.928 204.656 235.062C205.607 237.712 206.323 240.426 207 243.156C208.12 247.671 209.039 252.238 210.031 256.781C211.663 264.255 213.194 271.744 214.5 279.281C214.944 281.844 215.284 284.436 215.719 287C216.398 291.009 216.972 295.05 217.406 299.094C218.07 305.275 218.465 311.501 218.469 317.719C218.469 318.698 218.451 319.678 218.5 320.656C218.534 321.327 218.658 322.015 218.594 322.688C218.481 323.866 218.272 325.039 218.156 326.219C217.932 328.501 217.951 330.957 217.219 333.156C216.759 334.536 215.829 335.83 215.031 337.031C213.577 339.223 211.9 341.298 209.75 342.844C208.954 343.416 208.097 343.802 207.219 344.219C206.983 344.331 206.971 344.501 206.656 344.375C205.918 344.08 205.331 343.224 204.875 342.625C204.07 341.568 203.341 340.514 202.375 339.594C203.338 341.772 203.352 345.058 205.219 346.719C206.929 348.24 210.319 347.588 212.312 347.031C215.859 346.042 219.044 344.25 222.031 342.125C223.698 340.94 225.252 339.707 226.562 338.125C228.299 336.029 229.585 333.616 230.844 331.219C231.712 329.565 232.766 327.985 233.531 326.281C234.177 324.843 234.656 323.335 235.25 321.875C237.58 316.15 239.651 310.346 241.562 304.469C243.1 299.74 244.663 294.996 245.938 290.188C246.727 287.206 247.627 284.265 248.406 281.281C250.105 274.777 251.478 268.197 253.156 261.688C255.882 251.115 258.727 240.595 260.688 229.844C261.483 225.484 261.878 221.084 262.375 216.688C262.641 214.335 263.308 212.04 263.562 209.688C263.673 208.67 263.65 207.648 263.688 206.625C263.716 205.851 263.834 205.087 263.844 204.312C263.862 202.797 263.525 201.29 263.438 199.781C263.344 198.164 263.325 196.461 263.438 194.844C263.657 191.702 264.364 188.579 264.625 185.438C264.868 182.51 264.849 179.56 264.875 176.625C264.879 176.165 264.871 175.71 264.875 175.25C269.608 168.515 272.566 160.434 272.875 151.594C273.648 129.509 257.925 110.822 236.812 106.969C237.179 107.033 237.554 107.071 237.875 107.25C237.98 107.309 237.65 107.21 237.531 107.188C237.148 107.115 236.757 107.015 236.375 106.938C236.218 106.906 236.063 106.877 235.906 106.844C234.104 106.553 232.34 106.159 230.469 106.094C231.422 106.161 232.363 106.268 233.312 106.375C232.338 106.205 231.359 106.025 230.375 105.938C228.314 105.754 226.256 105.585 224.188 105.625ZM233.312 106.375C233.582 106.422 233.855 106.454 234.125 106.5C234.724 106.602 235.311 106.718 235.906 106.844C236.207 106.892 236.514 106.914 236.812 106.969C236.727 106.954 236.647 106.925 236.562 106.906C236.199 106.826 235.835 106.722 235.469 106.656C234.954 106.564 234.425 106.504 233.906 106.438C233.708 106.412 233.511 106.397 233.312 106.375ZM265.062 157.219C265.088 157.187 265.171 157.213 265.188 157.25C265.254 157.4 265.227 157.595 265.281 157.75C265.417 158.139 265.363 158.557 265.344 158.969C265.297 160 265.212 161.02 265 162.031C264.941 162.313 264.893 162.599 264.812 162.875C264.812 162.022 264.78 161.164 264.781 160.312C264.782 159.898 264.764 159.476 264.781 159.062C264.794 158.747 264.843 158.439 264.875 158.125C264.906 157.82 264.871 157.458 265.062 157.219Z" fill="#ffffff" stroke="none"/>
</g>
<g opacity="1" vectornator:layerName="Curve 9">
<path d="M127.75 206.438C125.067 206.497 122.535 206.674 119.875 207.125C112.731 208.337 106.13 210.95 100.031 214.844C88.9389 221.925 79.7286 231.994 73.2812 243.438C69.3113 250.484 66.4024 258.105 64.3125 265.906C60.8817 278.712 60.2034 291.873 59.9688 305.062C59.8006 314.515 59.8134 323.972 60.5 333.406C61.4299 346.183 63.2572 358.908 65.4062 371.531C68.3501 388.824 71.5771 406.234 78.0938 422.594C79.7557 426.766 81.6145 430.875 83.7188 434.844C85.836 438.837 88.2193 442.626 90.7812 446.344C95.0877 452.593 99.7869 458.574 106.125 462.906C107.369 463.757 108.647 464.589 109.969 465.312C111.51 466.156 113.085 466.978 114.719 467.625C116.691 468.406 118.682 469.122 120.75 469.594C123.305 470.177 125.914 470.652 128.531 470.781C131.345 470.921 134.182 470.823 136.969 470.406C138.517 470.175 140.012 469.645 141.531 469.25C143.22 471.285 145.039 473.18 147.312 474.438C151.622 476.822 156.675 477.981 161.594 478.25C165.091 478.441 168.528 476.999 171.812 475.781C173.728 475.071 175.344 473.727 177 472.531C177.921 471.866 178.696 471.022 179.5 470.219C181.128 468.592 182.523 466.653 183.656 464.656C185.971 460.577 187.411 456.158 188.156 451.531C188.69 448.221 188.699 444.897 188.812 441.562C188.853 440.373 188.915 439.189 188.969 438C189.074 436.004 189.182 434.027 189.281 432.031C189.283 432 189.28 431.969 189.281 431.938C189.431 431.725 189.634 431.555 189.781 431.344C191.082 429.475 191.551 427.097 191.75 424.875C192.02 421.855 191.926 418.789 191.844 415.75C192.778 410.717 193.63 405.664 194.531 400.625C196.155 391.546 197.697 382.456 199.312 373.375C201.161 366.527 202.992 359.675 204.906 352.844C203.559 356.564 202.268 360.305 200.938 364.031C202.158 357.049 203.488 350.09 204.625 343.094C205.005 340.757 205.382 338.401 205.75 336.062C206.022 334.331 206.274 332.604 206.562 330.875C206.877 328.996 207.41 327.156 207.75 325.281C208.44 321.482 208.434 317.506 206.531 314.031C206.107 313.257 205.63 312.539 205 311.906C204.246 311.149 203.467 310.632 202.5 310.188C201.673 309.808 200.867 309.584 199.969 309.469C198.932 309.335 197.867 309.429 196.844 309.625C195.28 309.925 193.756 310.592 192.344 311.469C192.417 308.176 192.497 304.886 192.562 301.594C192.686 295.365 192.931 289.105 192.938 282.875C192.939 281.171 192.821 279.482 192.75 277.781C192.751 277.74 192.749 277.698 192.75 277.656C192.834 273.861 192.957 270.077 193 266.281C193.028 263.83 193.121 261.251 192.562 258.844C192.333 257.856 192.162 256.816 191.656 255.938C190.606 254.113 189.432 252.377 188.312 250.594C187.885 249.913 186.818 249.116 186.188 248.625C183.969 246.897 181.331 245.726 178.562 245.219C178.037 245.123 177.5 245.235 176.969 245.188C174.214 222.701 154.788 205.64 131.75 206.562C132.212 206.571 132.695 206.584 133.156 206.594C132.845 206.572 132.53 206.546 132.219 206.531C130.737 206.463 129.228 206.405 127.75 206.438ZM195.031 320.531C195.097 320.467 195.163 320.692 195.188 320.781C195.147 320.727 195.104 320.679 195.062 320.625C195.06 320.622 195.023 320.539 195.031 320.531ZM97.625 411.938C97.5692 412.32 97.5182 412.686 97.4375 413.062C97.4146 413.169 97.4522 413.363 97.3438 413.375C97.2517 413.385 97.3295 413.185 97.3438 413.094C97.3673 412.943 97.4058 412.806 97.4375 412.656C97.4901 412.408 97.561 412.176 97.625 411.938Z" fill="#ffffff" stroke="none"/>
</g>
<g opacity="1" vectornator:layerName="Curve 10">
<path d="M76.25 90.25C74.881 90.2071 73.6345 90.9646 72.7812 92.1562C71.7663 93.5735 71.4415 95.3212 70.5312 96.7812C70.0964 97.4788 69.4935 98.1545 69 98.8125C68.2831 99.7684 67.5895 100.73 66.875 101.688C64.7337 104.558 62.6006 107.43 60.5625 110.375C56.422 116.358 52.5914 122.593 49.0312 128.938C47.7276 131.261 46.3763 133.569 45.1562 135.938C43.4134 139.322 41.9221 142.813 40.2188 146.219C38.3297 149.996 36.5873 153.832 34.9375 157.719C32.17 164.239 29.6918 171.001 28.625 178.031C28.1196 181.362 27.9743 184.699 28.0938 188.062C28.3168 192.313 31.9367 195.598 36.1875 195.375C40.4383 195.152 43.7231 191.501 43.5 187.25C42.7641 177.198 46.4558 167.808 49.6562 158.469C50.7324 155.328 51.6864 152.165 52.7812 149.031C53.6335 146.592 54.7139 144.227 55.625 141.812C56.6351 139.135 57.8158 136.53 58.875 133.875C57.2317 138.92 55.6034 143.952 53.9688 149C57.4361 140.938 60.7423 132.805 64.4375 124.844C67.088 119.134 69.9705 113.538 72.8438 107.938C73.7489 106.173 74.6489 104.432 75.5312 102.656C75.9992 101.714 76.3923 100.687 77.0312 99.8438C78.6831 97.665 81.2931 95.0171 79.4062 92.0938C79.2562 91.8613 79.0983 91.6679 78.9062 91.4688C78.5885 91.1392 78.0759 90.7445 77.6562 90.5625C77.1881 90.3595 76.7063 90.2643 76.25 90.25Z" fill="#ffffff" stroke="none"/>
</g>
<g opacity="1" vectornator:layerName="Curve 11">
<path d="M158.781 26.7188C149.029 26.7063 139.534 30.0935 130.906 34.4062C128.01 35.8539 125.216 37.4827 122.375 39.0312C118.773 40.9946 115.122 42.8479 111.781 45.25C104.526 50.4678 97.8567 56.4819 91.5625 62.8125C88.9072 65.4832 86.2993 68.202 83.8125 71.0312C81.9431 73.1582 80.2133 75.4131 78.4062 77.5938C75.1613 81.5098 71.8927 85.3556 68.8125 89.4062C65.3066 94.0167 61.8939 98.7218 58.5312 103.438C54.6172 108.927 50.2683 114.566 50.4062 121.656C50.4408 123.434 50.7877 125.142 51.2812 126.844C52.5281 130.914 56.8363 133.184 60.9062 131.938C64.9762 130.691 67.2468 126.382 66 122.312C65.3104 120.279 66.2752 118.827 67.3438 117.062C68.2041 115.641 69.1563 114.267 70.0625 112.875C74.386 106.235 78.8077 99.6346 83.1875 93.0312C85.1799 90.0274 87.0725 86.9736 89.1562 84.0312C90.9828 81.4521 92.9468 78.9881 94.8125 76.4375C101.361 67.4855 108.484 59.0154 116.844 51.6875C119.685 49.1967 122.924 47.2092 126.062 45.125C128.69 43.38 131.246 41.5532 133.938 39.9062C142.07 34.9308 151.256 30.766 160.938 30.5312C161.366 30.5209 161.794 30.5521 162.219 30.5625C160.932 30.9979 159.651 31.4617 158.375 31.9375C155.932 32.8483 153.635 34.1262 151.406 35.4688C147.127 38.047 142.969 41.0143 139.406 44.5312C138.981 44.9513 138.495 45.4617 138.094 45.9062C137.894 46.1273 137.692 46.3344 137.5 46.5625C137.385 46.6995 136.987 47.1218 136.844 47.4062C136.729 47.6337 136.884 47.7323 137.094 47.4375C137.108 47.4202 137.097 47.4596 137.094 47.5C137.049 47.5493 136.941 47.5638 136.875 47.6562C136.812 47.7313 137.068 47.6994 137.156 47.6562C138.222 47.134 139.137 46.2441 140.125 45.5938C139.364 46.0125 138.65 46.4901 137.906 46.9375C137.415 47.2328 137.379 47.3047 137.25 47.4062C137.444 47.2316 137.595 47.0019 137.781 46.8125C137.987 46.6038 138.193 46.4199 138.406 46.2188C138.835 45.8139 139.363 45.3477 139.812 44.9688C142.499 42.7057 145.486 40.7726 148.531 39.0312C151.875 37.1197 155.405 35.2473 159.125 34.1875C162.303 33.2821 165.937 32.9471 168.688 30.9375C169.055 30.6691 169.344 30.2602 169.438 29.8125C169.489 29.5682 169.507 29.5653 169.5 29.5312C169.499 29.5276 169.501 29.5022 169.5 29.5C169.498 29.4955 169.502 29.4375 169.5 29.4375C169.49 29.4374 169.479 29.4376 169.469 29.4375C169.486 29.3 169.368 28.836 169.344 28.7812C169.106 28.2505 168.637 27.8953 168.094 27.7188C167.269 27.4509 166.383 27.437 165.531 27.3125C163.283 26.984 161.059 26.7217 158.781 26.7188Z" fill="#ffffff" stroke="none"/>
</g>
<g opacity="1" vectornator:layerName="Curve 12">
<path d="M155.625 29.9688C152.075 30.0972 148.828 31.3447 145.656 32.8438C144.696 33.2977 143.442 33.9177 142.531 34.4062C141.404 35.0108 140.341 35.7082 139.25 36.375C139.073 36.422 138.892 36.4163 138.719 36.4688C137.997 36.6868 137.557 36.9068 136.938 37.25C135.269 38.1738 132.675 40.3728 131.938 42.25C131.721 42.8026 131.419 43.3454 131.375 43.9375C131.286 45.1304 131.069 46.428 131.531 47.5312C132.213 49.1582 133.296 50.6576 134.656 51.7812C135.61 52.5696 136.993 52.6758 138.188 53C138.536 53.0947 138.888 53.0245 139.25 53.0312C139.261 53.0315 139.301 53.0348 139.312 53.0312C140.54 52.6417 141.782 52.3747 142.969 51.875C143.515 51.645 143.983 51.2153 144.469 50.875C144.48 50.8668 144.488 50.8518 144.5 50.8438C144.509 50.8391 144.522 50.8484 144.531 50.8438C144.617 50.7847 144.696 50.7157 144.781 50.6562C145.191 50.3708 145.593 50.0704 146 49.7812C146.962 49.0979 147.938 48.4274 148.906 47.75C149.72 47.3924 150.534 47.0261 151.344 46.6562C152.794 45.9938 154.124 45.2021 155.5 44.4062C156.635 43.7497 157.9 43.2902 159.031 42.625C160.011 42.0486 160.828 41.3276 161.469 40.375C161.686 40.052 161.974 39.7289 162.031 39.3438C162.255 37.8379 162.221 36.301 162.312 34.7812C162.321 34.645 162.238 34.5331 162.188 34.4062C161.969 33.8557 161.824 33.5279 161.5 33.0312C161.019 32.2922 159.861 31.0059 158.969 30.75C158.115 30.5051 157.272 30.2 156.406 30C156.153 29.9415 155.885 29.9594 155.625 29.9688ZM151.656 31.875C151.677 31.9719 151.2 32.3229 151.062 32.4375C150.98 32.5066 150.896 32.5567 150.812 32.625C150.899 32.5223 150.974 32.4129 151.062 32.3125C151.167 32.1947 151.317 32.1008 151.438 32C151.501 31.9472 151.639 31.7943 151.656 31.875ZM133.438 45.2812C133.504 45.6693 133.657 46.0355 133.781 46.4062C133.63 46.0201 133.423 45.6336 133.438 45.375C133.439 45.3429 133.436 45.3101 133.438 45.2812ZM135.031 48.6875C135.151 48.8404 135.275 48.9812 135.406 49.125C135.274 48.9843 135.153 48.8377 135.031 48.6875Z" fill="#ffffff" stroke="none"/>
</g>
<g opacity="1" vectornator:layerName="Curve 13">
<path d="M195.031 7.21875C194.302 7.19497 193.635 7.22101 192.906 7.25C191.992 7.28638 190.911 7.36513 190.031 7.4375C187.08 7.68026 184.107 7.81294 181.156 8.0625C174.387 8.63502 167.405 9.70387 160.812 11.7812C155.725 13.0379 150.745 14.8148 145.906 16.8125C137.38 20.3329 129.213 24.7424 121.531 29.8438C117.388 32.595 113.382 35.5572 109.469 38.625C106.911 40.6296 104.234 42.6315 102.125 45.125C101.583 45.7657 101.108 46.4553 100.562 47.0938C98.0644 50.0199 95.5523 52.9443 94.625 56.7812C94.3596 57.8795 94.1373 59.124 94.2812 60.25C94.3774 61.0022 94.4933 61.7672 94.7812 62.4688C95.12 63.2941 95.551 64.0982 96.125 64.7812C96.7045 65.4708 97.4244 66.0526 98.1875 66.5312C98.8444 66.9433 99.5944 67.2069 100.344 67.4062C101.042 67.592 101.778 67.6647 102.5 67.6875C103.023 67.704 103.546 67.6139 104.062 67.5312C105.113 67.3633 106.112 66.9884 107.094 66.5938C107.579 66.3987 108.064 66.1602 108.562 66C108.631 65.9779 108.411 66.0356 108.344 66.0625C112.501 65.1501 115.131 61.0327 114.219 56.875C114.085 56.2668 113.76 55.7866 113.5 55.25C113.674 55.0289 113.841 54.7993 114.031 54.5938C115.46 53.0468 117.24 51.7836 118.875 50.4688C121.546 48.3207 124.257 46.2319 127.031 44.2188C134.155 39.0486 141.854 34.6658 149.875 31.0312C149.836 31.3109 149.757 31.5733 149.781 31.875C149.804 32.1516 149.863 32.42 149.938 32.6875C150.059 33.1248 150.348 33.7054 150.625 34.0625C151.05 34.6102 151.489 34.9877 152.125 35.2812C152.728 35.5597 153.283 35.6453 153.938 35.625C155.264 35.5839 156.396 34.7834 157.375 33.9688C157.748 33.658 158.153 33.1558 158.594 32.9375C160.091 32.196 161.612 31.4591 163.125 30.75C164.772 29.9781 166.467 29.3522 168.156 28.6875C169.321 28.3171 170.494 27.9703 171.656 27.5938C173.729 26.9221 175.808 26.1891 177.938 25.7188C179.79 25.3097 181.744 25.3101 183.625 25.0625C184.886 24.8965 187.415 24.6341 188.25 23.5625C188.278 23.5263 188.285 23.4745 188.312 23.4375C189.523 23.3052 190.727 23.1483 191.938 23.0312C192.707 22.9569 193.54 22.8246 194.312 22.8125C195.337 22.7964 196.978 23.1298 197.875 22.4062C198.022 22.4049 198.165 22.3964 198.312 22.4062C200.102 22.5264 201.946 22.8287 203.688 22.1875C204.811 21.7738 205.914 21.1326 206.688 20.2188C207.145 19.6783 207.566 19.0578 207.844 18.4062C207.963 18.1264 207.985 17.827 208.062 17.5312C210 17.6105 211.942 17.6792 213.875 17.8125C215.503 17.9248 217.118 18.1316 218.75 18.1875C220.213 18.2376 221.738 17.5656 223.156 18.0938C224.797 18.7048 226.052 20.2481 227.094 21.5625C228.177 22.9289 229.234 24.2358 230.594 25.3438C233.691 27.8668 237.487 29.4724 240.312 32.3438C243.648 35.733 245.009 40.2425 246.531 44.625C247.403 47.1333 248.616 49.591 249.312 52.1562C249.528 52.949 249.617 53.7575 249.781 54.5625C249.643 53.7509 249.565 52.9261 249.375 52.125C248.762 49.5379 247.632 47.0672 246.844 44.5312C245.434 39.9991 244.204 35.3553 240.906 31.7812C238.155 28.7991 234.408 27.077 231.375 24.4375C228.721 22.1277 227.101 18.0049 223.719 16.6562C222.053 15.9921 220.529 16.6177 218.844 16.5C217.235 16.3876 215.635 16.1323 214.031 15.9688C212.118 15.7737 210.199 15.6136 208.281 15.4688C208.26 15.1569 208.266 14.8389 208.219 14.5312C208.063 13.5195 207.577 12.4922 207 11.6562C205.018 8.7852 201.998 8.11604 198.781 7.625C197.534 7.43454 196.296 7.25999 195.031 7.21875Z" fill="#ffffff" stroke="none"/>
</g>
<g opacity="1" vectornator:layerName="Curve 14">
<path d="M206 5.125C199.801 5.63501 194.224 9.78316 192.156 16.0625C189.4 24.435 193.94 33.4623 202.312 36.2188C205.75 37.2541 209.153 38.3642 212.375 39.9688C213.271 40.4148 214.184 40.8504 215 41.4375C216.808 42.7389 218.3 44.5084 219.812 46.125C221.339 47.7565 222.891 49.3251 224.5 50.875C227.763 54.0177 231.185 56.9996 234.344 60.25C236.253 62.2151 237.815 64.4976 239.531 66.625C241.257 68.7646 243.09 70.845 244.719 73.0625C246.146 75.0065 247.489 76.9992 248.969 78.9062C251.147 81.7143 253.379 84.46 255.5 87.3125C262.033 96.1009 267.94 106.045 271.656 116.375C272.746 119.405 273.135 122.625 273.688 125.781C274.047 127.836 274.514 129.889 274.906 131.938C277.582 145.902 278.971 160.09 280.75 174.188C281.93 183.534 282.987 192.906 284.188 202.25C284.736 206.517 285.185 210.826 285.938 215.062C286.513 218.303 287.903 221.355 287.969 224.688C287.988 225.636 287.76 227.475 287.031 228.156C286.375 228.769 285.297 228.88 284.5 229.219C285.383 228.975 286.509 229.023 287.281 228.469C288.522 227.578 288.91 224.917 288.969 223.531C289.071 221.123 288.563 218.754 288.281 216.375C288.13 215.1 288.132 213.85 288.125 212.562C288.047 197.155 288.306 181.75 288.5 166.344C288.603 158.183 288.906 150.038 288.875 141.875C288.855 136.765 288.644 131.666 288.406 126.562C288.211 122.379 288.388 118.159 287.812 114C287.489 111.666 286.935 109.381 286.375 107.094C285.108 101.919 283.49 96.8326 281.625 91.8438C279.449 86.0228 276.985 80.3287 274.312 74.7188C272.458 70.8251 270.633 66.9222 268.469 63.1875C267.176 60.9565 265.684 58.829 264.344 56.625C261.673 52.235 259.765 47.3971 256.844 43.1562C253.071 37.6788 248.345 33.0542 244.062 28C240.7 24.0321 237.611 19.8856 233.5 16.625C227.269 11.6833 219.705 8.53081 212.281 5.875C210.188 5.18588 208.066 4.955 206 5.125Z" fill="#ffffff" stroke="none"/>
</g>
<g opacity="1" vectornator:layerName="Curve 15">
<path d="M268.344 58.8438C266.271 58.811 264.168 59.205 262.125 60.0312C253.954 63.3364 250.007 72.6411 253.312 80.8125C256.909 89.2383 261.038 97.519 263.594 106.344C265.501 112.927 266.892 119.664 268.406 126.344C270.166 134.103 272.165 141.757 274.562 149.344C276.102 154.216 277.704 159.098 279.25 163.969C280.229 167.053 281.1 170.159 282.25 173.188C284.294 178.57 286.568 183.858 287.812 189.5C288.14 190.986 288.441 192.514 288.562 194.031C288.698 195.718 288.484 197.442 288.406 199.125C288.271 202.064 288.288 204.997 288.188 207.938C287.906 216.211 287.302 224.478 286.531 232.719C286.073 237.624 285.491 242.502 285.031 247.406C284.201 256.271 283.825 265.171 282.625 274C282.223 276.955 281.174 279.769 280.594 282.688C279.931 286.019 279.641 289.455 279.125 292.812C278.308 298.129 277.311 303.404 276.312 308.688C275.814 311.324 275.972 313.97 275.688 316.625C275.288 320.355 274.373 324.054 273.469 327.688C272.84 330.214 272.143 332.707 271.25 335.156C268.751 342.011 265.417 348.507 263.469 355.562C261.82 361.532 260.897 367.661 259.5 373.688C259.078 375.506 258.657 377.367 258.125 379.156C257.59 380.957 256.888 382.723 256.281 384.5C257.065 382.785 257.942 381.089 258.656 379.344C259.369 377.602 259.988 375.782 260.594 374C262.568 368.187 264.065 362.232 266.281 356.5C268.654 350.364 272.121 344.783 275.094 338.938C276.668 335.843 277.988 332.672 279.156 329.406C280.518 325.602 281.859 321.744 282.688 317.781C283.156 315.54 283.213 313.213 283.812 311C285.102 306.235 286.662 301.543 287.969 296.781C288.608 294.45 289.206 292.098 289.781 289.75C290.147 288.255 290.443 286.719 290.906 285.25C291.86 282.228 293.249 279.394 294.031 276.312C296.376 267.076 297.695 257.653 299.688 248.344C300.882 242.764 302.203 237.21 303.375 231.625C305.02 223.782 306.473 215.89 307.688 207.969C308.028 205.745 308.304 203.493 308.719 201.281C309.263 198.377 309.831 195.56 309.875 192.594C309.991 184.867 308.796 177.059 306.969 169.562C305.447 163.318 303.515 157.186 302.406 150.844C301.727 146.958 301.191 143.046 300.531 139.156C299.658 134.004 298.714 128.851 297.906 123.688C296.452 114.393 295.045 105.017 292.656 95.9062C290.221 86.6191 286.328 77.7908 282.906 68.8438C280.427 62.7152 274.563 58.9419 268.344 58.8438Z" fill="#ffffff" stroke="none"/>
</g>
<g opacity="1" vectornator:layerName="Curve 16">
<path d="M287.781 171.156C285.507 171.016 283.329 172.204 281.219 173.062C280.223 173.467 279.389 174.219 278.562 174.906C277.784 175.554 277.061 176.289 276.406 177.062C273.28 180.755 272.283 185.573 272.781 190.281C272.941 191.792 273.203 193.327 273.844 194.719C274.161 195.407 274.619 195.989 275.031 196.625C275.232 196.935 275.426 197.082 275.562 197.312C276.441 198.743 277.557 199.988 278.812 201.062C279.579 202.26 280.335 203.477 281.031 204.688C284.449 210.627 287.309 216.878 290.312 223.031C292.55 216.175 294.826 209.318 297.438 202.594C302.7 199.382 305.774 193.305 304.906 186.875C304.922 187.142 304.936 187.42 304.938 187.688C304.938 187.765 304.951 187.843 304.906 187.906C304.881 187.942 304.882 187.825 304.875 187.781C304.851 187.637 304.827 187.49 304.812 187.344C304.787 187.091 304.777 186.846 304.75 186.594C304.706 186.186 304.692 185.779 304.625 185.375C304.507 184.668 304.401 183.934 304.188 183.25C303.808 182.037 303.554 180.741 302.844 179.688C301.468 177.648 300.171 175.307 298.031 174.094C294.938 172.34 291.33 171.375 287.781 171.156ZM301.281 190.406C301.939 190.073 301.782 191.003 302.219 191.094C302.279 191.106 302.315 190.956 302.375 190.969C302.44 190.982 302.453 191.092 302.469 191.156C302.67 191.969 302.129 193.326 301.812 194.062C301.236 195.404 300.35 196.554 299.375 197.625C299.771 196.623 300.124 195.591 300.312 194.5C300.506 193.378 300.313 192.197 300.594 191.094C300.639 190.917 300.808 190.816 300.938 190.688C301.043 190.583 301.149 190.473 301.281 190.406Z" fill="#ffffff" stroke="none"/>
</g>
<g opacity="1" vectornator:layerName="Curve 17">
<path d="M302.781 196.438C302.803 201.327 302.057 206.129 301.781 211C301.545 215.167 301.699 219.402 300.781 223.5C299.682 228.41 298.417 233.267 297 238.094C294.105 247.954 290.737 257.732 288.531 267.781C285.965 279.474 284.417 291.334 282.219 303.094C279.707 316.534 276.4 329.961 271.781 342.844C270.419 346.643 268.868 350.389 267.594 354.219C266.832 356.507 266.204 358.836 265.344 361.094C264.739 362.68 264.026 364.202 263.406 365.781C262.724 367.521 262.295 369.378 261.562 371.094C261.539 371.149 261.367 371.673 261.25 371.688C261.222 371.691 261.233 371.57 261.219 371.594C260.841 372.244 260.52 372.935 260.156 373.594C259.361 375.036 258.57 376.476 257.875 377.969C256.168 381.636 254.926 385.501 253.594 389.312C252.921 391.236 252.222 393.115 251.375 394.969C250.745 396.348 249.865 397.625 249.062 398.906C248.074 400.484 247.119 402.05 246.125 403.625C245.397 404.778 244.64 405.902 243.875 407.031C238.009 410.563 234.83 417.581 236.594 424.562C238.721 432.982 247.171 438.103 255.594 436.188C256.686 435.992 257.789 435.8 258.812 435.375C260.217 434.791 261.671 434.231 262.906 433.344C264.347 432.309 265.566 430.981 266.781 429.688C267.276 429.161 267.594 428.504 268 427.906C268.554 427.09 269.322 425.905 269.844 425.062C271.213 422.852 272.489 420.587 273.75 418.312C275.929 414.381 278.174 410.456 279.719 406.219C281.643 400.94 282.814 395.448 284.375 390.062C285.42 386.456 287.184 383.103 288.062 379.438C288.54 377.445 288.563 375.448 288.875 373.438C289.2 371.341 289.778 369.284 290.25 367.219C290.925 364.265 291.772 361.354 292.344 358.375C293.241 353.698 293.775 348.968 294.406 344.25C295.837 333.555 296.783 322.747 297.281 311.969C297.94 297.723 297.532 283.453 298.5 269.219C299.009 261.732 300.277 254.337 301.469 246.938C302.692 239.341 303.865 231.735 304.5 224.062C304.895 219.296 304.011 214.555 303.688 209.812C303.381 205.319 303.416 200.915 302.781 196.438Z" fill="#ffffff" stroke="none"/>
</g>
<g opacity="1" vectornator:layerName="Curve 18">
<path d="M306.031 213.469C305.674 213.495 305.332 213.649 305.031 213.844C304.912 213.921 304.895 214.092 304.812 214.219C304.59 214.147 304.406 213.984 304.156 213.969C303.823 213.949 303.466 213.907 303.156 214.031C302.592 214.258 302.052 214.568 301.625 215C301.263 215.366 301.045 215.858 300.875 216.344C300.714 216.803 300.683 217.298 300.625 217.781C300.495 218.87 300.524 219.998 300.531 221.094C300.575 228.128 300.325 235.189 300.094 242.219C299.973 245.882 299.785 249.522 299.719 253.188C299.695 253.397 299.68 253.603 299.656 253.812C299.387 256.203 299.038 258.581 298.75 260.969C298.394 261.208 298.392 261.806 298.344 262.156C298.281 262.613 298.239 263.072 298.188 263.531C298.196 263.449 298.177 263.363 298.188 263.281C298.299 262.415 298.54 261.589 298.312 260.719C298.243 260.451 298.095 260.221 297.844 260.094C297.825 260.084 297.804 260.075 297.781 260.062C297.787 260.043 297.741 260.066 297.719 260.062C297.684 260.056 297.657 260.035 297.625 260.031C296.515 259.888 296.577 261.632 296.531 262.219C296.513 262.455 296.491 262.702 296.469 262.938C296.425 263.409 296.39 263.872 296.344 264.344C296.241 265.403 296.151 266.126 296.062 267.188C296.023 267.666 295.998 268.146 295.969 268.625C295.94 269.107 295.919 269.58 295.906 270.062C295.894 270.543 295.905 271.019 295.906 271.5C295.908 272.086 296.118 273.018 296.562 273.625C296.575 274.855 296.599 276.081 296.719 277.312C296.758 277.714 296.762 278.148 296.906 278.531C296.995 278.768 297.157 278.952 297.406 279.031C297.43 279.039 297.464 279.087 297.469 279.062C297.467 279.071 297.467 279.04 297.469 279.031C297.467 279.041 297.531 279.033 297.594 279.031C297.593 279.385 297.579 279.74 297.594 280.094C297.607 280.398 297.628 280.701 297.656 281C297.088 285.339 296.491 289.669 296.125 294.031C295.118 306.027 294.795 318.058 293.5 330.031C293.341 331.517 294.389 332.841 295.875 333C297.361 333.159 298.716 332.111 298.875 330.625C299.861 321.283 300.315 311.899 300.906 302.531C301.39 302.53 301.966 302.341 302.312 302.125C303.816 301.188 303.76 298.802 303.938 297.25C303.986 296.826 304.026 296.394 304.062 295.969C304.099 295.553 304.127 295.135 304.156 294.719C304.185 294.31 304.224 293.909 304.25 293.5C304.317 292.461 304.32 292.16 304.406 291.125C304.492 290.102 304.596 289.085 304.688 288.062C305.191 282.44 305.583 276.788 306 271.156C307.356 260.217 308.866 249.313 309.719 238.312C310.004 234.63 310.418 230.947 310.438 227.25C310.451 224.703 310.092 222.033 309.188 219.594C309.158 219.502 309.162 219.398 309.125 219.312C308.93 218.823 308.89 218.271 308.625 217.812C308.465 217.536 308.249 217.312 308.062 217.062C308.164 216.148 308.125 215.239 307.562 214.375C307.42 214.157 307.112 213.825 306.875 213.719C306.608 213.599 306.323 213.447 306.031 213.469ZM297.906 278.844C297.871 279.114 297.848 279.386 297.812 279.656C297.806 279.426 297.782 279.199 297.781 278.969C297.845 278.947 297.856 278.879 297.906 278.844Z" fill="#ffffff" stroke="none"/>
</g>
<g opacity="1" vectornator:layerName="Curve 19">
<path d="M251.844 420.281C248.912 420.332 245.979 421.505 243.781 423.781C241.417 426.676 239.297 429.836 238.25 433.469C238.054 434.149 237.998 434.86 237.906 435.562C237.821 436.211 237.538 436.813 237.344 437.438C237.213 437.857 237.245 438.314 237.188 438.75C237.08 439.562 236.842 440.346 236.594 441.125C235.897 443.307 234.921 445.39 234.188 447.562C232.011 454.009 230.068 460.599 228.781 467.281C232.035 463.537 235.505 460.062 239.281 456.844C240.539 455.772 241.774 454.653 243.094 453.656C245.821 451.596 249.067 450.21 251.688 448C252.323 447.464 252.78 446.767 253.344 446.156C254.167 445.265 255.21 444.585 256.062 443.719C256.692 443.079 257.248 442.361 257.875 441.719C258.611 440.964 259.448 440.327 260.281 439.688C264.678 435.136 264.552 427.896 260 423.5C257.724 421.302 254.776 420.23 251.844 420.281Z" fill="#ffffff" stroke="none"/>
</g>
<g opacity="1" vectornator:layerName="Curve 20">
<path d="M253.656 433.125C250.757 432.685 247.673 433.374 245.125 435.25C243.84 436.23 242.688 437.29 241.688 438.562C240.234 440.412 239.159 442.55 237.844 444.5C235.735 447.626 233.503 450.69 231.344 453.781C229.878 455.88 228.446 457.987 226.781 459.938C222.996 464.371 218.706 468.321 214.844 472.688C211.575 476.383 209.002 480.637 205.75 484.344C204.874 485.342 203.84 486.19 202.844 487.062C201.334 488.384 199.83 489.71 198.406 491.125C197.675 491.851 196.727 492.74 196.219 493.656C196.198 493.676 196.177 493.699 196.156 493.719C195.332 494.325 194.503 494.928 193.75 495.625C192.233 497.029 191.018 498.674 189.906 500.406C189.155 501.577 188.455 502.737 187.531 503.781C187.193 504.164 186.862 504.544 186.5 504.906C185.167 505.605 183.906 506.417 182.812 507.562C181.814 508.608 181.05 509.967 180.469 511.281C180.314 511.631 180.131 511.968 180.062 512.344C179.932 513.056 179.866 513.781 179.781 514.5C179.501 514.804 179.26 515.144 178.969 515.438C178.39 516.02 177.726 516.508 177.062 517C176.53 517.298 175.988 517.587 175.469 517.906C175.329 517.992 175.202 518.1 175.062 518.188C174.778 518.214 174.5 518.233 174.219 518.281C173.815 518.35 173.395 518.425 173 518.531C171.917 518.822 170.907 519.286 169.938 519.844C169.508 520.091 169.062 520.371 168.656 520.656C168.625 520.678 168.567 520.692 168.594 520.719C166.974 521.328 165.283 521.762 163.625 522.25C163.313 522.342 162.616 522.645 162.156 522.719C161.014 522.902 159.837 522.832 158.688 522.938C155.654 523.217 152.866 524.198 150.062 525.25C149.563 525.234 149.063 525.224 148.562 525.219C149.086 524.979 149.583 524.698 150.125 524.5C150.527 524.353 152.39 523.925 152.469 523.438C152.519 523.13 152.14 522.846 151.938 522.688C151.353 522.229 150.701 521.874 150.062 521.5C150.492 521.775 150.928 522.048 151.344 522.344C151.587 522.517 152.425 522.998 152.344 523.406C152.279 523.729 151.552 523.867 151.312 523.938C150.225 524.257 149.199 524.58 148.156 525.031C148.021 525.09 147.885 525.159 147.75 525.219C144.336 525.218 140.93 525.336 137.562 525.75C137.06 525.812 136.563 525.869 136.062 525.938C135.827 525.864 135.646 525.844 135.406 525.781C134.712 525.601 134.001 525.413 133.438 525.438C132.932 525.459 132.364 525.29 131.938 525.562C130.161 526.699 127.671 527.563 127 529.562C126.363 531.46 127.085 533.494 127.75 535.469C126.713 535.893 126.164 536.927 126.656 538.031C127.33 539.543 129.708 539.441 131.156 539.625C132.018 539.735 132.885 539.709 133.75 539.75C135.119 540.373 136.503 540.916 138.031 541.062C139.167 541.172 140.285 540.982 141.406 540.875C141.416 540.874 141.427 540.876 141.438 540.875C141.449 540.88 141.525 540.9 141.562 540.906C141.737 540.933 141.919 540.943 142.094 540.969C142.365 541.01 142.635 541.056 142.906 541.094C143.232 541.139 143.676 541.19 144 541.219C145.584 541.36 147.072 541.18 148.625 540.844C148.635 540.842 148.646 540.846 148.656 540.844C150.419 540.777 152.187 540.824 153.938 540.594C158.687 539.97 163.28 538.635 167.781 537.031C168.082 536.961 168.385 536.944 168.688 536.875C170.455 536.469 172.254 536.1 173.969 535.5C174.848 535.193 175.711 534.785 176.531 534.344C176.692 534.257 176.842 534.154 177 534.062C177.022 534.061 177.041 534.064 177.062 534.062C177.411 534.036 177.78 534.026 178.125 533.969C179.061 533.813 179.885 533.584 180.781 533.281C182.854 532.58 184.848 531.577 186.656 530.344C188.285 529.233 189.659 527.888 191.062 526.562C191.156 526.56 191.251 526.567 191.344 526.562C192.192 526.524 193.205 526.297 194.031 526.062C197.331 525.124 200.104 522.976 202.812 520.969C203.993 520.094 205.162 519.218 206.344 518.344C212.772 513.586 219.133 508.65 224.438 502.625C226.2 500.623 227.898 498.575 229.719 496.625C230.288 496.016 230.78 495.437 231.406 494.906C231.451 494.868 231.454 494.833 231.531 494.781C231.601 494.746 231.686 494.733 231.75 494.688C232.558 494.114 233.329 493.496 234.125 492.906C234.513 492.619 234.851 492.133 235.125 491.75C237.033 489.086 237.336 485.635 236.156 482.625C239.289 479.484 242.45 476.358 245.281 472.938C247.493 470.266 249.431 467.397 251.469 464.594C254.305 460.692 257.092 456.783 259.688 452.719C259.633 452.789 259.591 452.84 259.531 452.906C259.28 453.186 258.987 453.425 258.719 453.688C263.814 449.935 264.909 442.752 261.156 437.656C259.28 435.108 256.556 433.565 253.656 433.125ZM230.5 494.594C230.504 494.595 230.315 494.752 230.25 494.781C230.22 494.795 230.186 494.799 230.156 494.812C230.273 494.734 230.369 494.544 230.5 494.594ZM188.25 504.031C187.947 504.147 187.696 504.309 187.406 504.438C187.458 504.406 187.51 504.373 187.562 504.344C187.714 504.26 187.843 504.197 188 504.125C188.077 504.09 188.329 504.001 188.25 504.031ZM144.906 526.844C145.105 526.844 145.302 526.843 145.5 526.844C145.428 526.865 145.354 526.886 145.281 526.906C145.134 526.947 144.995 527 144.844 527.031C144.739 527.028 144.636 527.008 144.531 527C144.655 526.946 144.784 526.9 144.906 526.844ZM141.969 526.938C141.229 526.919 140.487 526.975 139.75 527.094C139.645 527.068 139.542 527.027 139.438 527C140.283 526.951 141.121 526.961 141.969 526.938Z" fill="#ffffff" stroke="none"/>
</g>
<g opacity="1" vectornator:layerName="Curve 21">
<path d="M22.4688 379.438C21.5847 379.318 20.6433 379.364 19.7812 379.594C19.06 379.786 18.4392 380.251 17.8125 380.656C17.584 380.804 17.3495 380.965 17.25 381.219C16.7838 382.406 16.2864 383.585 15.8438 384.781C15.7837 384.944 15.8344 385.264 15.8438 385.438C15.8796 386.105 15.9682 386.772 16.0312 387.438C16.0332 387.458 16.0292 387.48 16.0312 387.5C16.033 387.521 16.0295 387.542 16.0312 387.562C15.9998 387.595 15.9679 387.623 15.9375 387.656C15.4714 388.165 15.1658 388.828 15.0312 389.5C14.8355 390.477 15.0815 391.481 15.2812 392.438C15.6081 394.002 16.0044 395.57 16.375 397.125C16.8703 399.203 17.0535 401.361 17.2812 403.5C17.662 408.508 18.1207 413.518 19.1562 418.438C20.3251 423.991 22.1098 429.333 24.0938 434.625C26.1109 441.297 28.3448 447.921 30.9062 454.406C33.8821 461.941 37.0974 469.363 41 476.469C41.7475 477.83 42.5094 479.171 43.3125 480.5C43.8847 481.447 44.4746 482.406 45.0625 483.344C45.7258 484.401 46.3106 485.523 47 486.562C47.2595 486.954 47.6834 487.272 48 487.656C48.4672 488.88 49.0403 490.042 49.7188 491.188C50.3586 492.267 50.9623 493.358 51.6562 494.406C53.0886 496.57 54.7167 498.62 56.2812 500.688C58.4497 503.553 60.6662 506.378 62.9062 509.188C63.1944 511.46 64.4898 513.415 66.375 515.125C67.6758 516.516 69.0016 517.868 70.375 519.188C71.5412 520.308 72.7492 521.407 73.9688 522.469C77.2037 525.285 80.6707 527.745 84.25 530.062C84.4343 530.199 84.5933 530.368 84.7812 530.5C85.9488 531.319 87.2075 532.016 88.4688 532.719C89.4837 533.299 90.5258 533.834 91.5625 534.375C92.5839 534.887 93.6142 535.411 94.625 535.906C94.9619 536.071 95.3181 536.182 95.6562 536.344C97.0032 536.964 98.3413 537.602 99.7188 538.156C104.427 540.213 109.2 542.073 114.094 543.688C117.839 544.923 121.726 545.977 125.688 546.125C127.886 546.207 130.035 545.904 132.125 545.375C133.117 546.011 134.142 546.624 135.344 546.938C135.52 547.001 135.698 547.098 135.875 547.156C136.063 547.219 136.242 547.278 136.438 547.312C137.514 547.501 138.576 547.648 139.656 547.812C140.807 547.988 142.267 547.628 143.344 547.281C147.097 546.071 149.84 543.007 150.875 539.281C151.47 539.213 152.136 539.139 152.688 539C153.961 538.678 155.221 538.235 156.344 537.531C157.179 537.008 158.032 536.458 158.719 535.75C159.574 534.868 160.311 533.869 160.938 532.812C161.401 532.031 161.7 531.158 161.938 530.281C162.189 529.353 162.329 528.398 162.375 527.438C162.415 526.602 162.339 525.761 162.188 524.938C162.035 524.107 161.791 523.28 161.469 522.5C160.021 518.991 157 516.614 153.438 515.531C152.404 515.217 151.301 515.077 150.219 515C149.834 514.937 149.447 514.901 149.062 514.844C148.767 514.724 148.524 514.502 148.219 514.406C146.381 513.828 144.495 513.683 142.594 513.531C141.757 512.365 140.843 511.265 139.719 510.344C136.129 507.404 131.556 506.519 127.188 505.375C123.663 504.452 120.176 503.271 116.719 502.125C112.038 500.573 107.407 498.82 103.062 496.469C97.5862 493.504 92.5692 489.681 87.9688 485.5C80.2225 478.461 73.3798 470.321 67.2188 461.875C63.2737 456.467 59.6337 450.842 55.4688 445.594C55.3526 445.447 55.2812 445.259 55.125 445.156C53.3304 443.978 51.4801 442.882 49.6562 441.75C49.3671 441.57 48.9955 441.559 48.6562 441.531C48.0216 441.479 47.3864 441.471 46.75 441.469C46.6276 441.185 46.4951 440.911 46.375 440.625C43.3866 433.512 40.2289 426.425 37.4688 419.219C35.9351 415.215 34.5806 411.168 33.25 407.094C32.8326 405.234 32.3693 403.401 32 401.531C32.3132 403.251 32.7428 404.942 33.0938 406.656C33.0308 406.418 32.9692 406.176 32.9062 405.938C32.7399 405.307 32.5657 404.695 32.4062 404.062C32.2499 403.443 32.0732 402.71 31.9062 402.094C31.816 401.761 31.7228 401.456 31.625 401.125C31.1846 399.634 30.9371 397.687 29.25 397.094C29.1512 397.059 29.0431 397.079 28.9375 397.062C28.7853 395.98 28.5998 394.894 28.4375 393.812C28.2577 392.615 28.0415 391.439 27.8125 390.25C27.7224 389.782 27.6158 389.308 27.5 388.844C27.446 388.322 27.3998 387.803 27.3438 387.281C27.1177 385.177 27.2003 382.706 25.5312 381.094C25.2017 380.775 24.8713 380.438 24.4688 380.219C23.838 379.876 23.1803 379.534 22.4688 379.438Z" fill="#ffffff" stroke="none"/>
</g>
<g opacity="1" vectornator:layerName="Curve 22">
<path d="M35.2188 177.656C34.5958 177.64 33.9977 177.977 33.4375 178.25C32.2462 178.83 31.6105 180.393 31.0938 181.531C30.8382 182.094 30.6776 182.673 30.4688 183.25C29.8971 184.831 29.3588 186.421 28.875 188.031C28.3874 189.654 28.0993 191.324 27.7188 192.969C27.2901 194.159 26.7932 195.322 26.4062 196.531C24.0087 204.023 22.0638 211.654 20.2812 219.312C18.7022 226.097 17.2986 232.883 16.125 239.75C15.5091 243.354 14.8998 246.951 14.1562 250.531C13.4088 254.131 12.5358 257.708 11.8125 261.312C10.8881 265.919 10.144 270.585 9.375 275.219C8.67343 279.446 7.9956 283.661 7.40625 287.906C6.59109 293.778 6.23448 299.694 5.6875 305.594C5.08879 312.051 4.41818 318.485 4.15625 324.969C3.84356 332.709 4.00782 340.445 3.96875 348.188C3.9225 357.352 3.89956 366.461 4.78125 375.594C5.02528 378.122 5.11166 380.682 5.5625 383.188C6.08729 386.104 7.04607 388.814 8.53125 391.375C11.7807 396.805 18.7883 398.593 24.2188 395.344C29.6492 392.094 31.437 385.055 28.1875 379.625C28.1664 379.594 28.1457 379.563 28.125 379.531C27.6821 378.174 27.6121 376.684 27.4688 375.281C27.2044 372.693 26.8673 370.091 26.625 367.5C26.0514 361.365 25.8738 355.217 25.6562 349.062C25.5007 344.661 25.2825 340.274 25.0625 335.875C24.7804 330.236 24.6559 324.581 24.5 318.938C24.3859 314.807 24.2206 310.664 24.25 306.531C24.2795 302.381 24.5893 298.269 24.75 294.125C25.1128 284.772 25.3859 275.43 26.0938 266.094C26.5061 260.655 27.3827 255.271 27.9062 249.844C28.5951 242.702 28.9742 235.524 29.9062 228.406C31.322 217.596 32.951 206.769 35.625 196.188C36.5621 192.479 37.8037 188.854 38.7812 185.156C39.1239 183.86 39.7022 182.873 39.5312 181.438C39.4746 180.962 39.3934 180.479 39.1562 180.062C38.7986 179.435 38.3974 178.721 37.7812 178.344C37.0229 177.879 36.1078 177.679 35.2188 177.656Z" fill="#ffffff" stroke="none"/>
</g>
</g>
<g clip-path="url(#ArtboardFrame)" id="Untitled" vectornator:layerName="Untitled">
<path d="M77.9266 64.6149C87.4664 54.4084 96.4463 44.1358 106.159 34.61C112.311 28.5754 119.258 23.2216 126.375 18.3277C138.791 9.78982 152.58 4.19016 167.538 1.92739C174.373 0.893466 181.324-0.132797 188.197 0.014095C199.723 0.260422 210.79 3.23572 221.389 7.8568C236.605 14.4909 249.422 24.4915 260.386 36.7181C272.821 50.5856 282.38 66.4913 290.075 83.3864C298.695 102.311 305.286 121.977 309.169 142.471C311.542 154.997 313.959 167.516 316.113 180.081C316.849 184.373 316.895 188.79 317.166 193.156C317.863 204.378 319.048 215.603 319.03 226.826C319.011 238.884 317.859 250.941 317.169 262.997C316.881 268.028 316.84 273.102 316.117 278.074C313.629 295.168 310.991 312.242 308.219 329.292C304.741 350.695 298.431 371.344 291.176 391.725C282.553 415.953 271.892 439.142 258.564 461.247C245.521 482.88 230.118 502.467 211.24 519.014C193.67 534.415 173.766 545.759 150.119 550.022C126.502 554.279 104.932 549.885 85.0791 537.065C76.9224 531.798 68.8743 525.921 62.1235 519.006C46.2644 502.763 34.0805 483.851 26.2584 462.454C20.2197 445.936 14.4255 429.292 9.48394 412.423C6.70709 402.943 5.88103 392.892 4.17663 383.098C-0.889469 353.988-0.145163 324.588 0.362825 295.26C0.572989 283.126 2.74625 271.016 4.20704 258.918C5.39016 249.119 6.4091 239.268 8.28709 229.593C10.6043 217.655 13.3665 205.773 16.5904 194.047C23.843 167.667 32.9646 141.936 45.2067 117.414C54.4357 98.9286 64.772 81.0951 77.9266 64.6149M66.1766 505.365C74.0904 513.732 82.2318 521.679 92.311 527.675C110.985 538.782 130.853 542.252 151.829 537.56C172.808 532.867 190.497 521.521 206.177 507.216C219.711 494.869 231.126 480.64 241.298 465.346C256.993 441.748 269.454 416.567 278.584 389.812C284.326 372.988 289.871 356.005 293.928 338.723C297.752 322.438 299.886 305.718 302.063 289.097C303.945 274.726 305.431 260.249 306.001 245.776C306.506 232.952 305.672 220.061 305.119 207.213C304.757 198.812 304.323 190.362 303.072 182.063C300.77 166.784 298.54 151.437 295.024 136.412C288.744 109.578 279.111 84.0512 263.257 61.104C252.783 45.9435 240.533 33.0739 224.534 23.5155C204.769 11.7065 183.919 9.52737 162.313 15.4297C140.641 21.3497 122.389 33.8158 106.443 49.2992C91.833 63.4863 79.4979 79.7636 69.4151 97.4084C60.5471 112.927 52.2574 128.931 45.4793 145.446C38.8148 161.684 33.5799 178.629 29.1641 195.639C24.0159 215.47 19.9064 235.615 16.3646 255.803C14.0366 269.072 12.7465 282.635 12.3698 296.105C11.8991 312.939 12.5604 329.825 13.2749 346.665C13.7601 358.102 14.917 369.53 16.2631 380.905C17.2446 389.198 18.5548 397.512 20.5436 405.614C25.0778 424.085 30.0985 442.374 38.0275 459.842C45.397 476.077 54.0096 491.36 66.1766 505.365Z" fill="#000000" fill-rule="nonzero" opacity="1" stroke="none" vectornator:layerName="path"/>
</g>
</svg>
